<svg xmlns="http://www.w3.org/2000/svg" xmlns:xlink="http://www.w3.org/1999/xlink" width="500" zoomAndPan="magnify" viewBox="0 0 375 374.999991" height="500" preserveAspectRatio="xMidYMid meet" version="1.0"><defs><g/><clipPath id="5341dfc86b"><path d="M 100.179688 113 L 274.929688 113 L 274.929688 211.71875 L 100.179688 211.71875 Z M 100.179688 113 " clip-rule="nonzero"/></clipPath></defs><rect x="-37.5" width="450" fill="#ffffff" y="-37.499999" height="449.999989" fill-opacity="1"/><rect x="-37.5" width="450" fill="#ffffff" y="-37.499999" height="449.999989" fill-opacity="1"/><g fill="#000000" fill-opacity="1"><g transform="translate(56.373707, 248.138216)"><g><path d="M 2.921875 -22.265625 L 11.796875 -22.265625 C 14.597656 -22.265625 16.765625 -21.597656 18.296875 -20.265625 C 19.835938 -18.941406 20.609375 -17.070312 20.609375 -14.65625 C 20.609375 -12.132812 19.835938 -10.175781 18.296875 -8.78125 C 16.765625 -7.394531 14.597656 -6.703125 11.796875 -6.703125 L 6.671875 -6.703125 L 6.671875 0 L 2.921875 0 Z M 6.671875 -18.890625 L 6.671875 -10.078125 L 11.640625 -10.078125 C 15.222656 -10.078125 17.015625 -11.570312 17.015625 -14.5625 C 17.015625 -17.445312 15.222656 -18.890625 11.640625 -18.890625 Z M 6.671875 -18.890625 "/></g></g></g><g fill="#000000" fill-opacity="1"><g transform="translate(79.424023, 248.138216)"><g><path d="M 17.296875 -5.03125 L 6.078125 -5.03125 L 3.9375 0 L 0.03125 0 L 9.859375 -22.265625 L 13.703125 -22.265625 L 23.4375 0 L 19.421875 0 Z M 15.859375 -8.359375 L 11.671875 -18.25 L 7.46875 -8.359375 Z M 15.859375 -8.359375 "/></g></g></g><g fill="#000000" fill-opacity="1"><g transform="translate(104.540879, 248.138216)"><g><path d="M 25.8125 0 L 21.96875 0 L 16.6875 -17.359375 L 11.34375 0 L 7.46875 0 L 0.09375 -22.265625 L 4.140625 -22.265625 L 9.546875 -4.171875 L 14.90625 -22.21875 L 18.59375 -22.265625 L 24 -4.171875 L 29.375 -22.265625 L 33.265625 -22.265625 Z M 25.8125 0 "/></g></g></g><g fill="#000000" fill-opacity="1"><g transform="translate(139.132023, 248.138216)"><g/></g></g><g fill="#000000" fill-opacity="1"><g transform="translate(148.988264, 248.138216)"><g><path d="M 12.78125 -22.359375 C 14.351562 -22.359375 15.882812 -22.054688 17.375 -21.453125 C 18.875 -20.847656 20.160156 -20.003906 21.234375 -18.921875 L 19.046875 -16.1875 C 18.242188 -17.050781 17.289062 -17.738281 16.1875 -18.25 C 15.082031 -18.757812 13.96875 -19.015625 12.84375 -19.015625 C 10.613281 -19.015625 8.726562 -18.253906 7.1875 -16.734375 C 5.65625 -15.222656 4.890625 -13.375 4.890625 -11.1875 C 4.890625 -8.988281 5.65625 -7.128906 7.1875 -5.609375 C 8.726562 -4.097656 10.613281 -3.34375 12.84375 -3.34375 C 15.15625 -3.34375 17.222656 -4.222656 19.046875 -5.984375 L 21.265625 -3.5 C 20.128906 -2.375 18.796875 -1.484375 17.265625 -0.828125 C 15.734375 -0.171875 14.195312 0.15625 12.65625 0.15625 C 9.394531 0.15625 6.648438 -0.925781 4.421875 -3.09375 C 2.191406 -5.269531 1.078125 -7.957031 1.078125 -11.15625 C 1.078125 -14.320312 2.207031 -16.976562 4.46875 -19.125 C 6.726562 -21.28125 9.5 -22.359375 12.78125 -22.359375 Z M 12.78125 -22.359375 "/></g></g></g><g fill="#000000" fill-opacity="1"><g transform="translate(172.801609, 248.138216)"><g><path d="M 4.484375 -19.125 C 6.753906 -21.28125 9.550781 -22.359375 12.875 -22.359375 C 16.207031 -22.359375 19.003906 -21.28125 21.265625 -19.125 C 23.535156 -16.976562 24.671875 -14.3125 24.671875 -11.125 C 24.671875 -7.945312 23.535156 -5.269531 21.265625 -3.09375 C 19.003906 -0.925781 16.207031 0.15625 12.875 0.15625 C 9.550781 0.15625 6.753906 -0.925781 4.484375 -3.09375 C 2.210938 -5.269531 1.078125 -7.945312 1.078125 -11.125 C 1.078125 -14.3125 2.210938 -16.976562 4.484375 -19.125 Z M 12.90625 -18.984375 C 10.707031 -18.984375 8.820312 -18.222656 7.25 -16.703125 C 5.675781 -15.191406 4.890625 -13.332031 4.890625 -11.125 C 4.890625 -8.925781 5.679688 -7.054688 7.265625 -5.515625 C 8.847656 -3.984375 10.726562 -3.21875 12.90625 -3.21875 C 15.09375 -3.21875 16.957031 -3.984375 18.5 -5.515625 C 20.050781 -7.054688 20.828125 -8.925781 20.828125 -11.125 C 20.828125 -13.332031 20.050781 -15.191406 18.5 -16.703125 C 16.957031 -18.222656 15.09375 -18.984375 12.90625 -18.984375 Z M 12.90625 -18.984375 "/></g></g></g><g fill="#000000" fill-opacity="1"><g transform="translate(200.207552, 248.138216)"><g><path d="M 22.21875 0 L 18.53125 0 L 6.671875 -15.96875 L 6.671875 0 L 2.921875 0 L 2.921875 -22.265625 L 6.609375 -22.265625 L 18.53125 -6.265625 L 18.53125 -22.265625 L 22.21875 -22.265625 Z M 22.21875 0 "/></g></g></g><g fill="#000000" fill-opacity="1"><g transform="translate(227.041222, 248.138216)"><g><path d="M 22.21875 0 L 18.53125 0 L 6.671875 -15.96875 L 6.671875 0 L 2.921875 0 L 2.921875 -22.265625 L 6.609375 -22.265625 L 18.53125 -6.265625 L 18.53125 -22.265625 L 22.21875 -22.265625 Z M 22.21875 0 "/></g></g></g><g fill="#000000" fill-opacity="1"><g transform="translate(253.874892, 248.138216)"><g><path d="M 18.828125 -18.890625 L 6.671875 -18.890625 L 6.671875 -12.875 L 17.546875 -12.875 L 17.546875 -9.5 L 6.671875 -9.5 L 6.671875 -3.375 L 19.203125 -3.375 L 19.203125 0 L 2.921875 0 L 2.921875 -22.265625 L 18.828125 -22.265625 Z M 18.828125 -18.890625 "/></g></g></g><g fill="#000000" fill-opacity="1"><g transform="translate(276.384733, 248.138216)"><g><path d="M 12.78125 -22.359375 C 14.351562 -22.359375 15.882812 -22.054688 17.375 -21.453125 C 18.875 -20.847656 20.160156 -20.003906 21.234375 -18.921875 L 19.046875 -16.1875 C 18.242188 -17.050781 17.289062 -17.738281 16.1875 -18.25 C 15.082031 -18.757812 13.96875 -19.015625 12.84375 -19.015625 C 10.613281 -19.015625 8.726562 -18.253906 7.1875 -16.734375 C 5.65625 -15.222656 4.890625 -13.375 4.890625 -11.1875 C 4.890625 -8.988281 5.65625 -7.128906 7.1875 -5.609375 C 8.726562 -4.097656 10.613281 -3.34375 12.84375 -3.34375 C 15.15625 -3.34375 17.222656 -4.222656 19.046875 -5.984375 L 21.265625 -3.5 C 20.128906 -2.375 18.796875 -1.484375 17.265625 -0.828125 C 15.734375 -0.171875 14.195312 0.15625 12.65625 0.15625 C 9.394531 0.15625 6.648438 -0.925781 4.421875 -3.09375 C 2.191406 -5.269531 1.078125 -7.957031 1.078125 -11.15625 C 1.078125 -14.320312 2.207031 -16.976562 4.46875 -19.125 C 6.726562 -21.28125 9.5 -22.359375 12.78125 -22.359375 Z M 12.78125 -22.359375 "/></g></g></g><g fill="#000000" fill-opacity="1"><g transform="translate(300.198078, 248.138216)"><g><path d="M 18.125 -18.890625 L 11.0625 -18.890625 L 11.0625 0 L 7.3125 0 L 7.3125 -18.890625 L 0.28125 -18.890625 L 0.28125 -22.265625 L 18.125 -22.265625 Z M 18.125 -18.890625 "/></g></g></g><g fill="#000000" fill-opacity="1"><g transform="translate(131.857863, 261.574552)"><g><path d="M 3.015625 -1.859375 L 3.015625 0 L 2.078125 0 L 2.078125 -1.828125 L 0.015625 -5.5625 L 0.953125 -5.5625 L 2.546875 -2.859375 L 4.109375 -5.5625 L 5.0625 -5.5625 Z M 3.015625 -1.859375 "/></g></g></g><g fill="#000000" fill-opacity="1"><g transform="translate(140.1786, 261.574552)"><g><path d="M 1.109375 -4.78125 C 1.679688 -5.320312 2.382812 -5.59375 3.21875 -5.59375 C 4.050781 -5.59375 4.75 -5.320312 5.3125 -4.78125 C 5.882812 -4.25 6.171875 -3.582031 6.171875 -2.78125 C 6.171875 -1.988281 5.882812 -1.316406 5.3125 -0.765625 C 4.75 -0.222656 4.050781 0.046875 3.21875 0.046875 C 2.382812 0.046875 1.679688 -0.222656 1.109375 -0.765625 C 0.546875 -1.316406 0.265625 -1.988281 0.265625 -2.78125 C 0.265625 -3.582031 0.546875 -4.25 1.109375 -4.78125 Z M 3.234375 -4.75 C 2.679688 -4.75 2.207031 -4.554688 1.8125 -4.171875 C 1.414062 -3.796875 1.21875 -3.332031 1.21875 -2.78125 C 1.21875 -2.226562 1.414062 -1.757812 1.8125 -1.375 C 2.207031 -0.988281 2.675781 -0.796875 3.21875 -0.796875 C 3.769531 -0.796875 4.238281 -0.988281 4.625 -1.375 C 5.007812 -1.757812 5.203125 -2.226562 5.203125 -2.78125 C 5.203125 -3.332031 5.007812 -3.796875 4.625 -4.171875 C 4.238281 -4.554688 3.773438 -4.75 3.234375 -4.75 Z M 3.234375 -4.75 "/></g></g></g><g fill="#000000" fill-opacity="1"><g transform="translate(149.873865, 261.574552)"><g><path d="M 5.46875 -5.5625 L 5.46875 -2.3125 C 5.46875 -1.582031 5.25 -1.003906 4.8125 -0.578125 C 4.382812 -0.160156 3.796875 0.046875 3.046875 0.046875 C 2.296875 0.046875 1.703125 -0.160156 1.265625 -0.578125 C 0.835938 -1.003906 0.625 -1.582031 0.625 -2.3125 L 0.625 -5.5625 L 1.5625 -5.5625 L 1.5625 -2.3125 C 1.5625 -1.84375 1.691406 -1.472656 1.953125 -1.203125 C 2.222656 -0.929688 2.585938 -0.796875 3.046875 -0.796875 C 3.503906 -0.796875 3.863281 -0.925781 4.125 -1.1875 C 4.394531 -1.457031 4.53125 -1.832031 4.53125 -2.3125 L 4.53125 -5.5625 Z M 5.46875 -5.5625 "/></g></g></g><g fill="#000000" fill-opacity="1"><g transform="translate(159.20365, 261.574552)"><g><path d="M 4.265625 0 L 3.25 -1.6875 C 3.195312 -1.675781 3.109375 -1.671875 2.984375 -1.671875 L 1.671875 -1.671875 L 1.671875 0 L 0.734375 0 L 0.734375 -5.5625 L 2.984375 -5.5625 C 3.703125 -5.5625 4.253906 -5.394531 4.640625 -5.0625 C 5.035156 -4.738281 5.234375 -4.273438 5.234375 -3.671875 C 5.234375 -3.222656 5.132812 -2.84375 4.9375 -2.53125 C 4.738281 -2.226562 4.453125 -2.003906 4.078125 -1.859375 L 5.328125 0 Z M 1.671875 -2.515625 L 2.984375 -2.515625 C 3.890625 -2.515625 4.34375 -2.890625 4.34375 -3.640625 C 4.34375 -4.359375 3.890625 -4.71875 2.984375 -4.71875 L 1.671875 -4.71875 Z M 1.671875 -2.515625 "/></g></g></g><g fill="#000000" fill-opacity="1"><g transform="translate(168.20768, 261.574552)"><g/></g></g><g fill="#000000" fill-opacity="1"><g transform="translate(173.517181, 261.574552)"><g><path d="M 1.671875 -0.84375 L 4.078125 -0.84375 L 4.078125 0 L 0.734375 0 L 0.734375 -5.5625 L 1.671875 -5.5625 Z M 1.671875 -0.84375 "/></g></g></g><g fill="#000000" fill-opacity="1"><g transform="translate(181.019561, 261.574552)"><g><path d="M 1.109375 -4.78125 C 1.679688 -5.320312 2.382812 -5.59375 3.21875 -5.59375 C 4.050781 -5.59375 4.75 -5.320312 5.3125 -4.78125 C 5.882812 -4.25 6.171875 -3.582031 6.171875 -2.78125 C 6.171875 -1.988281 5.882812 -1.316406 5.3125 -0.765625 C 4.75 -0.222656 4.050781 0.046875 3.21875 0.046875 C 2.382812 0.046875 1.679688 -0.222656 1.109375 -0.765625 C 0.546875 -1.316406 0.265625 -1.988281 0.265625 -2.78125 C 0.265625 -3.582031 0.546875 -4.25 1.109375 -4.78125 Z M 3.234375 -4.75 C 2.679688 -4.75 2.207031 -4.554688 1.8125 -4.171875 C 1.414062 -3.796875 1.21875 -3.332031 1.21875 -2.78125 C 1.21875 -2.226562 1.414062 -1.757812 1.8125 -1.375 C 2.207031 -0.988281 2.675781 -0.796875 3.21875 -0.796875 C 3.769531 -0.796875 4.238281 -0.988281 4.625 -1.375 C 5.007812 -1.757812 5.203125 -2.226562 5.203125 -2.78125 C 5.203125 -3.332031 5.007812 -3.796875 4.625 -4.171875 C 4.238281 -4.554688 3.773438 -4.75 3.234375 -4.75 Z M 3.234375 -4.75 "/></g></g></g><g fill="#000000" fill-opacity="1"><g transform="translate(190.714823, 261.574552)"><g><path d="M 3.203125 -5.59375 C 3.585938 -5.59375 3.96875 -5.515625 4.34375 -5.359375 C 4.71875 -5.210938 5.039062 -5.003906 5.3125 -4.734375 L 4.765625 -4.046875 C 4.566406 -4.265625 4.328125 -4.4375 4.046875 -4.5625 C 3.773438 -4.6875 3.5 -4.75 3.21875 -4.75 C 2.65625 -4.75 2.179688 -4.5625 1.796875 -4.1875 C 1.410156 -3.8125 1.21875 -3.347656 1.21875 -2.796875 C 1.21875 -2.242188 1.410156 -1.773438 1.796875 -1.390625 C 2.179688 -1.015625 2.65625 -0.828125 3.21875 -0.828125 C 3.789062 -0.828125 4.304688 -1.050781 4.765625 -1.5 L 5.328125 -0.875 C 5.035156 -0.59375 4.695312 -0.367188 4.3125 -0.203125 C 3.9375 -0.0351562 3.554688 0.046875 3.171875 0.046875 C 2.347656 0.046875 1.65625 -0.222656 1.09375 -0.765625 C 0.539062 -1.316406 0.265625 -1.992188 0.265625 -2.796875 C 0.265625 -3.585938 0.546875 -4.25 1.109375 -4.78125 C 1.679688 -5.320312 2.378906 -5.59375 3.203125 -5.59375 Z M 3.203125 -5.59375 "/></g></g></g><g fill="#000000" fill-opacity="1"><g transform="translate(199.512273, 261.574552)"><g><path d="M 4.328125 -1.25 L 1.515625 -1.25 L 0.984375 0 L 0.015625 0 L 2.46875 -5.5625 L 3.421875 -5.5625 L 5.859375 0 L 4.859375 0 Z M 3.96875 -2.09375 L 2.921875 -4.5625 L 1.875 -2.09375 Z M 3.96875 -2.09375 "/></g></g></g><g fill="#000000" fill-opacity="1"><g transform="translate(208.63548, 261.574552)"><g><path d="M 1.671875 -0.84375 L 4.078125 -0.84375 L 4.078125 0 L 0.734375 0 L 0.734375 -5.5625 L 1.671875 -5.5625 Z M 1.671875 -0.84375 "/></g></g></g><g fill="#000000" fill-opacity="1"><g transform="translate(216.13786, 261.574552)"><g/></g></g><g fill="#000000" fill-opacity="1"><g transform="translate(221.447357, 261.574552)"><g><path d="M 0.734375 -5.5625 L 2.953125 -5.5625 C 3.648438 -5.5625 4.191406 -5.394531 4.578125 -5.0625 C 4.960938 -4.738281 5.15625 -4.273438 5.15625 -3.671875 C 5.15625 -3.035156 4.960938 -2.539062 4.578125 -2.1875 C 4.191406 -1.84375 3.648438 -1.671875 2.953125 -1.671875 L 1.671875 -1.671875 L 1.671875 0 L 0.734375 0 Z M 1.671875 -4.71875 L 1.671875 -2.515625 L 2.90625 -2.515625 C 3.800781 -2.515625 4.25 -2.890625 4.25 -3.640625 C 4.25 -4.359375 3.800781 -4.71875 2.90625 -4.71875 Z M 1.671875 -4.71875 "/></g></g></g><g fill="#000000" fill-opacity="1"><g transform="translate(230.054126, 261.574552)"><g><path d="M 4.703125 -4.71875 L 1.671875 -4.71875 L 1.671875 -3.21875 L 4.390625 -3.21875 L 4.390625 -2.375 L 1.671875 -2.375 L 1.671875 -0.84375 L 4.796875 -0.84375 L 4.796875 0 L 0.734375 0 L 0.734375 -5.5625 L 4.703125 -5.5625 Z M 4.703125 -4.71875 "/></g></g></g><g fill="#000000" fill-opacity="1"><g transform="translate(238.525821, 261.574552)"><g><path d="M 4.53125 -4.71875 L 2.765625 -4.71875 L 2.765625 0 L 1.828125 0 L 1.828125 -4.71875 L 0.078125 -4.71875 L 0.078125 -5.5625 L 4.53125 -5.5625 Z M 4.53125 -4.71875 "/></g></g></g><g fill="#000000" fill-opacity="1"><g transform="translate(146.424268, 270.574552)"><g><path d="M 3.203125 -5.59375 C 3.585938 -5.59375 3.96875 -5.515625 4.34375 -5.359375 C 4.71875 -5.210938 5.039062 -5.003906 5.3125 -4.734375 L 4.765625 -4.046875 C 4.566406 -4.265625 4.328125 -4.4375 4.046875 -4.5625 C 3.773438 -4.6875 3.5 -4.75 3.21875 -4.75 C 2.65625 -4.75 2.179688 -4.5625 1.796875 -4.1875 C 1.410156 -3.8125 1.21875 -3.347656 1.21875 -2.796875 C 1.21875 -2.242188 1.410156 -1.773438 1.796875 -1.390625 C 2.179688 -1.015625 2.65625 -0.828125 3.21875 -0.828125 C 3.789062 -0.828125 4.304688 -1.050781 4.765625 -1.5 L 5.328125 -0.875 C 5.035156 -0.59375 4.695312 -0.367188 4.3125 -0.203125 C 3.9375 -0.0351562 3.554688 0.046875 3.171875 0.046875 C 2.347656 0.046875 1.65625 -0.222656 1.09375 -0.765625 C 0.539062 -1.316406 0.265625 -1.992188 0.265625 -2.796875 C 0.265625 -3.585938 0.546875 -4.25 1.109375 -4.78125 C 1.679688 -5.320312 2.378906 -5.59375 3.203125 -5.59375 Z M 3.203125 -5.59375 "/></g></g></g><g fill="#000000" fill-opacity="1"><g transform="translate(155.221721, 270.574552)"><g><path d="M 1.109375 -4.78125 C 1.679688 -5.320312 2.382812 -5.59375 3.21875 -5.59375 C 4.050781 -5.59375 4.75 -5.320312 5.3125 -4.78125 C 5.882812 -4.25 6.171875 -3.582031 6.171875 -2.78125 C 6.171875 -1.988281 5.882812 -1.316406 5.3125 -0.765625 C 4.75 -0.222656 4.050781 0.046875 3.21875 0.046875 C 2.382812 0.046875 1.679688 -0.222656 1.109375 -0.765625 C 0.546875 -1.316406 0.265625 -1.988281 0.265625 -2.78125 C 0.265625 -3.582031 0.546875 -4.25 1.109375 -4.78125 Z M 3.234375 -4.75 C 2.679688 -4.75 2.207031 -4.554688 1.8125 -4.171875 C 1.414062 -3.796875 1.21875 -3.332031 1.21875 -2.78125 C 1.21875 -2.226562 1.414062 -1.757812 1.8125 -1.375 C 2.207031 -0.988281 2.675781 -0.796875 3.21875 -0.796875 C 3.769531 -0.796875 4.238281 -0.988281 4.625 -1.375 C 5.007812 -1.757812 5.203125 -2.226562 5.203125 -2.78125 C 5.203125 -3.332031 5.007812 -3.796875 4.625 -4.171875 C 4.238281 -4.554688 3.773438 -4.75 3.234375 -4.75 Z M 3.234375 -4.75 "/></g></g></g><g fill="#000000" fill-opacity="1"><g transform="translate(164.916985, 270.574552)"><g><path d="M 6.609375 0 L 5.75 0 L 5.734375 -4.15625 L 3.984375 -0.578125 L 3.375 -0.578125 L 1.609375 -4.15625 L 1.609375 0 L 0.734375 0 L 0.734375 -5.5625 L 1.84375 -5.5625 L 3.6875 -1.875 L 5.515625 -5.5625 L 6.609375 -5.5625 Z M 6.609375 0 "/></g></g></g><g fill="#000000" fill-opacity="1"><g transform="translate(175.525956, 270.574552)"><g><path d="M 6.609375 0 L 5.75 0 L 5.734375 -4.15625 L 3.984375 -0.578125 L 3.375 -0.578125 L 1.609375 -4.15625 L 1.609375 0 L 0.734375 0 L 0.734375 -5.5625 L 1.84375 -5.5625 L 3.6875 -1.875 L 5.515625 -5.5625 L 6.609375 -5.5625 Z M 6.609375 0 "/></g></g></g><g fill="#000000" fill-opacity="1"><g transform="translate(186.134929, 270.574552)"><g><path d="M 5.46875 -5.5625 L 5.46875 -2.3125 C 5.46875 -1.582031 5.25 -1.003906 4.8125 -0.578125 C 4.382812 -0.160156 3.796875 0.046875 3.046875 0.046875 C 2.296875 0.046875 1.703125 -0.160156 1.265625 -0.578125 C 0.835938 -1.003906 0.625 -1.582031 0.625 -2.3125 L 0.625 -5.5625 L 1.5625 -5.5625 L 1.5625 -2.3125 C 1.5625 -1.84375 1.691406 -1.472656 1.953125 -1.203125 C 2.222656 -0.929688 2.585938 -0.796875 3.046875 -0.796875 C 3.503906 -0.796875 3.863281 -0.925781 4.125 -1.1875 C 4.394531 -1.457031 4.53125 -1.832031 4.53125 -2.3125 L 4.53125 -5.5625 Z M 5.46875 -5.5625 "/></g></g></g><g fill="#000000" fill-opacity="1"><g transform="translate(195.464716, 270.574552)"><g><path d="M 5.5625 0 L 4.640625 0 L 1.671875 -4 L 1.671875 0 L 0.734375 0 L 0.734375 -5.5625 L 1.65625 -5.5625 L 4.640625 -1.5625 L 4.640625 -5.5625 L 5.5625 -5.5625 Z M 5.5625 0 "/></g></g></g><g fill="#000000" fill-opacity="1"><g transform="translate(205.016961, 270.574552)"><g><path d="M 1.671875 0 L 0.734375 0 L 0.734375 -5.5625 L 1.671875 -5.5625 Z M 1.671875 0 "/></g></g></g><g fill="#000000" fill-opacity="1"><g transform="translate(210.676041, 270.574552)"><g><path d="M 4.53125 -4.71875 L 2.765625 -4.71875 L 2.765625 0 L 1.828125 0 L 1.828125 -4.71875 L 0.078125 -4.71875 L 0.078125 -5.5625 L 4.53125 -5.5625 Z M 4.53125 -4.71875 "/></g></g></g><g fill="#000000" fill-opacity="1"><g transform="translate(218.535958, 270.574552)"><g><path d="M 3.015625 -1.859375 L 3.015625 0 L 2.078125 0 L 2.078125 -1.828125 L 0.015625 -5.5625 L 0.953125 -5.5625 L 2.546875 -2.859375 L 4.109375 -5.5625 L 5.0625 -5.5625 Z M 3.015625 -1.859375 "/></g></g></g><g fill="#000000" fill-opacity="1"><g transform="translate(226.856693, 270.574552)"><g><path d="M 0.859375 -0.96875 C 0.992188 -0.96875 1.109375 -0.921875 1.203125 -0.828125 C 1.304688 -0.734375 1.359375 -0.609375 1.359375 -0.453125 C 1.359375 -0.304688 1.304688 -0.164062 1.203125 -0.03125 L 0.75 0.65625 L 0.28125 0.65625 L 0.59375 -0.046875 C 0.445312 -0.140625 0.375 -0.273438 0.375 -0.453125 C 0.375 -0.597656 0.421875 -0.71875 0.515625 -0.8125 C 0.609375 -0.914062 0.722656 -0.96875 0.859375 -0.96875 Z M 0.859375 -0.96875 "/></g></g></g><g fill="#000000" fill-opacity="1"><g transform="translate(148.814893, 279.574551)"><g><path d="M 3.203125 -5.59375 C 3.585938 -5.59375 3.96875 -5.515625 4.34375 -5.359375 C 4.71875 -5.210938 5.039062 -5.003906 5.3125 -4.734375 L 4.765625 -4.046875 C 4.566406 -4.265625 4.328125 -4.4375 4.046875 -4.5625 C 3.773438 -4.6875 3.5 -4.75 3.21875 -4.75 C 2.65625 -4.75 2.179688 -4.5625 1.796875 -4.1875 C 1.410156 -3.8125 1.21875 -3.347656 1.21875 -2.796875 C 1.21875 -2.242188 1.410156 -1.773438 1.796875 -1.390625 C 2.179688 -1.015625 2.65625 -0.828125 3.21875 -0.828125 C 3.789062 -0.828125 4.304688 -1.050781 4.765625 -1.5 L 5.328125 -0.875 C 5.035156 -0.59375 4.695312 -0.367188 4.3125 -0.203125 C 3.9375 -0.0351562 3.554688 0.046875 3.171875 0.046875 C 2.347656 0.046875 1.65625 -0.222656 1.09375 -0.765625 C 0.539062 -1.316406 0.265625 -1.992188 0.265625 -2.796875 C 0.265625 -3.585938 0.546875 -4.25 1.109375 -4.78125 C 1.679688 -5.320312 2.378906 -5.59375 3.203125 -5.59375 Z M 3.203125 -5.59375 "/></g></g></g><g fill="#000000" fill-opacity="1"><g transform="translate(157.612346, 279.574551)"><g><path d="M 1.109375 -4.78125 C 1.679688 -5.320312 2.382812 -5.59375 3.21875 -5.59375 C 4.050781 -5.59375 4.75 -5.320312 5.3125 -4.78125 C 5.882812 -4.25 6.171875 -3.582031 6.171875 -2.78125 C 6.171875 -1.988281 5.882812 -1.316406 5.3125 -0.765625 C 4.75 -0.222656 4.050781 0.046875 3.21875 0.046875 C 2.382812 0.046875 1.679688 -0.222656 1.109375 -0.765625 C 0.546875 -1.316406 0.265625 -1.988281 0.265625 -2.78125 C 0.265625 -3.582031 0.546875 -4.25 1.109375 -4.78125 Z M 3.234375 -4.75 C 2.679688 -4.75 2.207031 -4.554688 1.8125 -4.171875 C 1.414062 -3.796875 1.21875 -3.332031 1.21875 -2.78125 C 1.21875 -2.226562 1.414062 -1.757812 1.8125 -1.375 C 2.207031 -0.988281 2.675781 -0.796875 3.21875 -0.796875 C 3.769531 -0.796875 4.238281 -0.988281 4.625 -1.375 C 5.007812 -1.757812 5.203125 -2.226562 5.203125 -2.78125 C 5.203125 -3.332031 5.007812 -3.796875 4.625 -4.171875 C 4.238281 -4.554688 3.773438 -4.75 3.234375 -4.75 Z M 3.234375 -4.75 "/></g></g></g><g fill="#000000" fill-opacity="1"><g transform="translate(167.30761, 279.574551)"><g><path d="M 5.5625 0 L 4.640625 0 L 1.671875 -4 L 1.671875 0 L 0.734375 0 L 0.734375 -5.5625 L 1.65625 -5.5625 L 4.640625 -1.5625 L 4.640625 -5.5625 L 5.5625 -5.5625 Z M 5.5625 0 "/></g></g></g><g fill="#000000" fill-opacity="1"><g transform="translate(176.859857, 279.574551)"><g><path d="M 5.5625 0 L 4.640625 0 L 1.671875 -4 L 1.671875 0 L 0.734375 0 L 0.734375 -5.5625 L 1.65625 -5.5625 L 4.640625 -1.5625 L 4.640625 -5.5625 L 5.5625 -5.5625 Z M 5.5625 0 "/></g></g></g><g fill="#000000" fill-opacity="1"><g transform="translate(186.412105, 279.574551)"><g><path d="M 4.703125 -4.71875 L 1.671875 -4.71875 L 1.671875 -3.21875 L 4.390625 -3.21875 L 4.390625 -2.375 L 1.671875 -2.375 L 1.671875 -0.84375 L 4.796875 -0.84375 L 4.796875 0 L 0.734375 0 L 0.734375 -5.5625 L 4.703125 -5.5625 Z M 4.703125 -4.71875 "/></g></g></g><g fill="#000000" fill-opacity="1"><g transform="translate(194.883802, 279.574551)"><g><path d="M 3.203125 -5.59375 C 3.585938 -5.59375 3.96875 -5.515625 4.34375 -5.359375 C 4.71875 -5.210938 5.039062 -5.003906 5.3125 -4.734375 L 4.765625 -4.046875 C 4.566406 -4.265625 4.328125 -4.4375 4.046875 -4.5625 C 3.773438 -4.6875 3.5 -4.75 3.21875 -4.75 C 2.65625 -4.75 2.179688 -4.5625 1.796875 -4.1875 C 1.410156 -3.8125 1.21875 -3.347656 1.21875 -2.796875 C 1.21875 -2.242188 1.410156 -1.773438 1.796875 -1.390625 C 2.179688 -1.015625 2.65625 -0.828125 3.21875 -0.828125 C 3.789062 -0.828125 4.304688 -1.050781 4.765625 -1.5 L 5.328125 -0.875 C 5.035156 -0.59375 4.695312 -0.367188 4.3125 -0.203125 C 3.9375 -0.0351562 3.554688 0.046875 3.171875 0.046875 C 2.347656 0.046875 1.65625 -0.222656 1.09375 -0.765625 C 0.539062 -1.316406 0.265625 -1.992188 0.265625 -2.796875 C 0.265625 -3.585938 0.546875 -4.25 1.109375 -4.78125 C 1.679688 -5.320312 2.378906 -5.59375 3.203125 -5.59375 Z M 3.203125 -5.59375 "/></g></g></g><g fill="#000000" fill-opacity="1"><g transform="translate(203.681253, 279.574551)"><g><path d="M 4.53125 -4.71875 L 2.765625 -4.71875 L 2.765625 0 L 1.828125 0 L 1.828125 -4.71875 L 0.078125 -4.71875 L 0.078125 -5.5625 L 4.53125 -5.5625 Z M 4.53125 -4.71875 "/></g></g></g><g fill="#000000" fill-opacity="1"><g transform="translate(211.541169, 279.574551)"><g><path d="M 4.703125 -4.71875 L 1.671875 -4.71875 L 1.671875 -3.21875 L 4.390625 -3.21875 L 4.390625 -2.375 L 1.671875 -2.375 L 1.671875 -0.84375 L 4.796875 -0.84375 L 4.796875 0 L 0.734375 0 L 0.734375 -5.5625 L 4.703125 -5.5625 Z M 4.703125 -4.71875 "/></g></g></g><g fill="#000000" fill-opacity="1"><g transform="translate(220.012863, 279.574551)"><g><path d="M 0.734375 -5.5625 L 3.015625 -5.5625 C 3.847656 -5.5625 4.535156 -5.300781 5.078125 -4.78125 C 5.617188 -4.257812 5.890625 -3.59375 5.890625 -2.78125 C 5.890625 -1.976562 5.613281 -1.3125 5.0625 -0.78125 C 4.519531 -0.257812 3.828125 0 2.984375 0 L 0.734375 0 Z M 1.671875 -4.71875 L 1.671875 -0.84375 L 3.03125 -0.84375 C 3.582031 -0.84375 4.039062 -1.023438 4.40625 -1.390625 C 4.769531 -1.753906 4.953125 -2.21875 4.953125 -2.78125 C 4.953125 -3.34375 4.765625 -3.804688 4.390625 -4.171875 C 4.015625 -4.535156 3.550781 -4.71875 3 -4.71875 Z M 1.671875 -4.71875 "/></g></g></g><g clip-path="url(#5341dfc86b)"><path fill="#040606" d="M 234.175781 209.519531 C 233.96875 209.519531 233.871094 209.261719 234.027344 209.128906 L 234.035156 209.121094 C 234.699219 208.546875 235.316406 207.90625 235.886719 207.242188 C 238.605469 204.085938 239.910156 199.8125 240.417969 195.742188 C 240.761719 193.015625 240.394531 190.429688 240.046875 187.925781 C 239.648438 185.078125 239.269531 182.386719 239.9375 179.667969 C 240.242188 178.449219 240.890625 177.644531 241.714844 176.621094 C 242.234375 175.972656 242.824219 175.238281 243.335938 174.351562 C 243.890625 173.386719 244.050781 172.285156 243.769531 171.324219 C 243.300781 169.730469 241.757812 168.578125 240.097656 168.578125 C 240.023438 168.578125 239.957031 168.578125 239.886719 168.585938 C 237.894531 168.707031 235.910156 170.773438 234.90625 171.996094 C 233.691406 173.46875 232.78125 175.355469 232.269531 177.453125 C 231.621094 180.125 231.699219 182.671875 231.882812 185.128906 C 231.4375 183.894531 230.890625 182.722656 230.359375 181.59375 C 229.75 180.300781 229.179688 179.082031 228.773438 177.820312 L 228.742188 177.722656 C 228.277344 176.226562 227.582031 174.828125 226.683594 173.570312 C 225.890625 172.464844 225.582031 171.371094 225.566406 169.660156 C 225.542969 166.441406 224.71875 163.996094 222.710938 161.222656 C 222.347656 160.71875 222.460938 160.175781 222.851562 158.859375 C 223.046875 158.203125 223.265625 157.453125 223.339844 156.660156 C 223.628906 153.59375 222.503906 151.246094 221.417969 148.972656 C 220.992188 148.082031 220.414062 147.238281 220.097656 146.351562 C 219.875 145.734375 219.691406 145.101562 219.492188 144.429688 C 219.1875 143.386719 218.710938 142.308594 218.230469 141.238281 C 217.675781 139.988281 217.109375 138.792969 216.101562 137.84375 C 215.164062 136.957031 213.769531 136.628906 212.5625 137.152344 C 211.347656 137.675781 210.886719 138.789062 210.542969 139.996094 C 210.238281 141.066406 209.972656 142.113281 209.878906 143.125 C 209.84375 143.527344 209.808594 143.902344 209.765625 144.269531 C 209.75 144.378906 209.734375 144.496094 209.71875 144.605469 C 209.691406 144.753906 209.585938 144.875 209.441406 144.921875 C 209.328125 144.953125 209.199219 144.988281 209.097656 145.015625 C 208.964844 145.050781 208.835938 145.089844 208.707031 145.128906 C 207.535156 145.480469 206.414062 146.058594 205.175781 146.949219 L 205.125 146.988281 C 205.085938 147.019531 205.039062 147.050781 204.992188 147.085938 C 204.816406 147.210938 204.582031 147.226562 204.394531 147.121094 C 204.015625 146.914062 203.515625 146.570312 203.175781 146.332031 C 202 145.523438 200.785156 144.6875 199.410156 144.6875 C 198.613281 144.6875 197.886719 144.972656 197.304688 145.515625 C 195.519531 147.183594 197.105469 150.304688 197.960938 151.976562 C 197.992188 152.039062 198.023438 152.097656 198.046875 152.144531 C 198.410156 152.875 198.824219 153.636719 199.378906 154.609375 C 199.574219 154.957031 199.796875 155.269531 200.007812 155.570312 C 200.292969 155.972656 200.589844 156.394531 200.648438 156.675781 C 200.683594 156.835938 200.683594 157.054688 200.679688 157.363281 C 200.675781 158.277344 200.660156 159.664062 201.660156 162 C 201.871094 162.496094 202.078125 162.910156 202.261719 163.277344 C 202.4375 163.632812 202.640625 164.03125 202.671875 164.195312 C 202.722656 164.46875 202.6875 164.761719 202.605469 165.34375 C 202.535156 165.851562 202.445312 166.484375 202.421875 167.300781 C 202.394531 168.207031 202.410156 168.957031 202.421875 169.617188 C 202.449219 171.003906 202.449219 171.640625 202.179688 172.214844 C 201.515625 173.628906 201.082031 175.175781 200.667969 176.671875 C 200.441406 177.480469 200.226562 178.242188 199.988281 178.953125 C 199.085938 181.621094 198.476562 183.171875 197.632812 185.324219 C 197.445312 185.804688 197.242188 186.3125 197.023438 186.871094 C 195.644531 190.402344 195.21875 195.34375 195.917969 199.769531 C 196.566406 203.875 198.097656 206.949219 200.308594 209.027344 C 200.53125 209.234375 200.382812 209.605469 200.078125 209.605469 L 185.21875 209.605469 C 184.941406 209.605469 184.789062 209.285156 184.960938 209.070312 C 185.820312 207.984375 186.71875 206.859375 187.03125 206.492188 C 187.757812 205.632812 188.507812 204.746094 189.207031 203.832031 C 191.246094 201.179688 195.058594 193.757812 193.121094 188.992188 C 192.550781 187.585938 191.191406 185.8125 187.976562 185.34375 C 186.078125 185.066406 184.492188 185.527344 183.328125 186.109375 C 183.355469 185.988281 183.386719 185.859375 183.421875 185.726562 C 184.277344 182.246094 186.554688 173.003906 184.640625 161.84375 C 184.023438 158.25 183.355469 155.523438 182.476562 153.015625 L 182.425781 152.871094 C 181.730469 150.878906 180.941406 148.621094 180.019531 146.703125 C 179.910156 146.476562 179.796875 146.265625 179.691406 146.0625 C 179.183594 145.121094 179.085938 144.835938 179.382812 144.414062 C 181.300781 141.609375 182.183594 138.855469 182.589844 137.039062 C 182.625 136.890625 182.65625 136.730469 182.691406 136.5625 C 183.234375 137.195312 183.910156 137.6875 184.667969 137.996094 C 184.78125 138.039062 184.886719 138.0625 184.964844 138.078125 C 185.070312 138.136719 185.199219 138.207031 185.347656 138.269531 C 186.480469 138.730469 187.792969 138.351562 188.542969 137.351562 C 189.265625 136.386719 189.492188 135.425781 189.707031 134.496094 C 189.789062 134.15625 189.871094 133.800781 189.980469 133.449219 C 190.371094 132.171875 190.957031 130.972656 191.578125 129.707031 C 192.152344 128.53125 192.746094 127.320312 193.171875 126.039062 C 194.140625 123.117188 193.617188 120.132812 191.796875 118.242188 C 190.207031 116.589844 187.96875 115.683594 185.984375 115.015625 C 182.867188 113.96875 179.453125 113.667969 176.113281 114.15625 C 176.03125 114.167969 175.941406 114.191406 175.664062 114.257812 L 175.382812 114.324219 C 175.265625 114.355469 175.09375 114.375 174.933594 114.3125 C 171.269531 112.753906 166.65625 112.785156 162.59375 114.390625 C 162.558594 114.402344 162.5 114.394531 162.4375 114.371094 C 162.382812 114.351562 162.328125 114.335938 162.277344 114.324219 L 162.007812 114.257812 C 161.730469 114.191406 161.636719 114.167969 161.554688 114.15625 C 158.21875 113.667969 154.804688 113.96875 151.683594 115.015625 C 148.460938 116.105469 144.125 117.984375 143.65625 121.761719 C 143.480469 123.171875 143.691406 124.621094 144.28125 126.070312 C 144.714844 127.144531 145.242188 128.179688 145.75 129.183594 C 145.96875 129.617188 146.1875 130.050781 146.398438 130.480469 C 147.109375 131.941406 147.429688 133.230469 147.582031 135.238281 C 147.703125 136.796875 148.445312 137.492188 149.050781 137.800781 C 150.074219 138.320312 151.46875 138.132812 152.882812 137.277344 C 153.578125 136.929688 154.238281 136.4375 154.773438 135.875 C 155.398438 139.914062 156.957031 142.546875 157.605469 143.644531 C 157.695312 143.792969 157.769531 143.925781 157.808594 143.996094 C 158.183594 144.714844 158.050781 145.066406 157.574219 146.0625 C 157.511719 146.191406 157.449219 146.328125 157.382812 146.464844 C 157.148438 146.976562 156.882812 147.507812 156.625 148.015625 C 156.253906 148.761719 155.863281 149.53125 155.539062 150.308594 C 154.375 153.082031 153.449219 155.644531 152.710938 158.152344 C 152.445312 159.0625 152.195312 159.988281 151.96875 160.902344 C 150.957031 165.011719 150.457031 169.472656 150.488281 174.15625 C 150.507812 177.898438 151.085938 181.328125 151.695312 184.960938 C 151.757812 185.332031 151.820312 185.703125 151.878906 186.074219 C 151.882812 186.097656 151.882812 186.117188 151.882812 186.132812 C 150.40625 185.382812 148.785156 185.109375 147.191406 185.34375 C 145.324219 185.613281 143.730469 186.613281 142.691406 188.152344 C 141.457031 189.988281 141.125 192.410156 141.757812 194.957031 C 142.175781 196.644531 142.847656 198.253906 143.871094 199.996094 C 140.976562 198.878906 138.898438 196.730469 137.550781 193.472656 C 136.558594 191.074219 135.273438 190.933594 134.597656 191.0625 C 133.03125 191.363281 131.917969 193.648438 131.890625 196.609375 C 131.84375 201.585938 135.867188 206.253906 139.554688 209.183594 C 139.695312 209.296875 139.707031 209.636719 139.632812 209.769531 L 100.1875 209.605469 L 100.1875 211.449219 C 105.1875 211.480469 137.378906 211.671875 147.675781 211.4375 C 148.21875 211.425781 148.652344 211.144531 148.652344 210.605469 C 148.652344 210.050781 148.203125 209.605469 147.652344 209.605469 L 146.882812 209.605469 C 145.1875 209.546875 144.210938 209.292969 142.9375 208.753906 C 138.796875 207.003906 134.8125 202.820312 133.839844 198.371094 C 133.503906 196.828125 133.515625 194.738281 134.304688 193.320312 C 134.414062 193.128906 134.554688 192.9375 134.757812 192.855469 C 135.355469 192.617188 135.769531 193.753906 135.929688 194.140625 C 137.699219 198.414062 141.109375 201.433594 145.691406 202.324219 C 146.039062 202.394531 146.398438 202.242188 146.59375 201.945312 C 146.785156 201.644531 146.78125 201.261719 146.578125 200.96875 C 144.9375 198.605469 143.976562 196.621094 143.457031 194.539062 C 142.945312 192.472656 143.191406 190.550781 144.148438 189.125 C 144.90625 188.003906 146.074219 187.273438 147.445312 187.074219 C 148.699219 186.890625 149.929688 187.101562 151.105469 187.699219 C 151.707031 188.007812 152.382812 187.960938 152.910156 187.578125 C 153.457031 187.175781 153.726562 186.492188 153.609375 185.789062 C 153.546875 185.414062 153.484375 185.042969 153.421875 184.671875 C 152.824219 181.113281 152.261719 177.746094 152.238281 174.144531 C 152.214844 169.605469 152.695312 165.289062 153.671875 161.320312 C 153.890625 160.429688 154.132812 159.53125 154.390625 158.648438 C 155.113281 156.203125 156.015625 153.699219 157.15625 150.984375 C 157.457031 150.265625 157.832031 149.519531 158.191406 148.804688 C 158.457031 148.277344 158.730469 147.734375 158.976562 147.195312 C 159.039062 147.066406 159.097656 146.9375 159.15625 146.816406 C 159.648438 145.785156 160.160156 144.71875 159.363281 143.1875 C 159.304688 143.074219 159.222656 142.933594 159.113281 142.753906 C 158.40625 141.554688 156.519531 138.367188 156.285156 133.390625 C 156.265625 133 155.992188 132.667969 155.609375 132.578125 C 155.226562 132.488281 154.832031 132.664062 154.644531 133.003906 C 154.367188 133.503906 154.113281 133.898438 153.851562 134.253906 C 153.414062 134.847656 152.761719 135.386719 152.070312 135.726562 C 152.046875 135.738281 152.03125 135.75 152.011719 135.761719 C 151.15625 136.285156 150.304688 136.472656 149.847656 136.238281 C 149.550781 136.089844 149.375 135.707031 149.332031 135.105469 C 149.191406 133.253906 148.90625 131.625 147.976562 129.714844 C 147.761719 129.277344 147.539062 128.835938 147.316406 128.398438 C 146.824219 127.421875 146.3125 126.417969 145.90625 125.414062 C 145.429688 124.242188 145.257812 123.085938 145.394531 121.976562 C 145.785156 118.851562 150.644531 117.214844 152.246094 116.675781 C 155.097656 115.714844 158.226562 115.441406 161.289062 115.882812 C 161.34375 115.894531 161.453125 115.921875 161.585938 115.957031 L 161.84375 116.019531 C 162.3125 116.1875 162.808594 116.1875 163.234375 116.015625 C 166.828125 114.597656 171.046875 114.5625 174.25 115.921875 C 174.726562 116.125 175.265625 116.160156 175.804688 116.023438 L 176.082031 115.957031 C 176.21875 115.921875 176.328125 115.894531 176.382812 115.882812 C 179.445312 115.441406 182.570312 115.714844 185.425781 116.675781 C 187.292969 117.308594 189.207031 118.078125 190.535156 119.453125 C 192.164062 121.152344 192.105469 123.683594 191.507812 125.488281 C 191.117188 126.660156 190.578125 127.765625 190.003906 128.9375 C 189.378906 130.210938 188.734375 131.527344 188.304688 132.9375 C 188.179688 133.34375 188.089844 133.730469 188.003906 134.097656 C 187.800781 134.953125 187.644531 135.628906 187.136719 136.300781 C 186.867188 136.667969 186.398438 136.804688 186.007812 136.648438 C 185.957031 136.628906 185.890625 136.589844 185.820312 136.546875 C 185.773438 136.523438 185.726562 136.496094 185.683594 136.472656 C 185.609375 136.433594 185.535156 136.40625 185.457031 136.386719 C 185.40625 136.375 185.351562 136.367188 185.300781 136.359375 L 185.289062 136.355469 C 184.523438 136.035156 183.882812 135.414062 183.484375 134.605469 C 183.417969 134.472656 183.289062 134.144531 183.183594 133.878906 C 183.085938 133.644531 183 133.421875 182.9375 133.277344 C 182.734375 132.835938 182.214844 132.640625 181.777344 132.839844 C 181.425781 132.996094 181.230469 133.351562 181.261719 133.714844 C 181.261719 134.003906 181.207031 138.640625 177.933594 143.425781 C 177.007812 144.773438 177.636719 145.945312 178.140625 146.886719 C 178.242188 147.074219 178.347656 147.265625 178.4375 147.457031 C 179.316406 149.289062 180.089844 151.5 180.773438 153.449219 L 180.824219 153.59375 C 181.667969 156.007812 182.3125 158.640625 182.914062 162.140625 C 184.765625 172.941406 182.632812 181.605469 181.71875 185.304688 C 181.570312 185.910156 181.464844 186.347656 181.40625 186.660156 C 181.304688 187.226562 181.53125 187.789062 181.984375 188.085938 C 182.417969 188.375 182.972656 188.367188 183.429688 188.066406 C 184.355469 187.464844 185.847656 186.800781 187.722656 187.074219 C 189.671875 187.359375 190.90625 188.199219 191.496094 189.648438 C 192.921875 193.15625 190.226562 199.632812 187.816406 202.769531 C 187.140625 203.648438 186.40625 204.523438 185.691406 205.363281 C 185.0625 206.109375 184.410156 206.878906 183.792969 207.664062 C 183.699219 207.785156 182.101562 209.488281 181.882812 209.832031 C 181.882812 209.832031 181.882812 209.835938 181.878906 209.835938 C 181.6875 210.007812 181.566406 210.25 181.566406 210.523438 C 181.566406 210.691406 181.613281 210.851562 181.695312 210.988281 C 181.855469 211.261719 182.148438 211.445312 182.488281 211.445312 L 204.714844 211.414062 C 205.089844 211.414062 205.429688 211.160156 205.507812 210.796875 C 205.613281 210.285156 205.226562 209.835938 204.734375 209.835938 L 204.703125 209.835938 C 204.25 209.691406 203.804688 209.519531 203.375 209.296875 C 196.898438 205.917969 196.238281 193.792969 198.6875 187.519531 C 199.898438 184.425781 200.566406 182.824219 201.679688 179.527344 C 202.386719 177.429688 202.855469 174.972656 203.796875 172.96875 C 204.457031 171.566406 204.128906 170.164062 204.210938 167.355469 C 204.257812 165.664062 204.613281 164.867188 204.421875 163.863281 C 204.300781 163.203125 203.796875 162.453125 203.300781 161.300781 C 202.066406 158.40625 202.644531 157.441406 202.394531 156.296875 C 202.191406 155.351562 201.402344 154.554688 200.929688 153.726562 C 200.484375 152.941406 200.050781 152.152344 199.644531 151.34375 C 199.277344 150.613281 197.664062 147.625 198.527344 146.820312 C 200.207031 145.253906 203.222656 149.484375 205.046875 149.046875 C 205.480469 148.945312 205.855469 148.664062 206.222656 148.394531 C 207.164062 147.722656 208.125 147.164062 209.21875 146.835938 C 210.003906 146.601562 210.890625 146.492188 211.285156 145.609375 C 211.4375 145.261719 211.484375 144.875 211.535156 144.492188 C 211.703125 143.15625 211.890625 141.785156 212.261719 140.484375 C 212.5 139.644531 212.996094 138.46875 214.070312 138.699219 C 215.417969 138.992188 216.105469 140.851562 216.597656 141.960938 C 217.316406 143.570312 217.816406 145.292969 218.414062 146.957031 C 219.578125 150.191406 221.90625 152.816406 221.5625 156.496094 C 221.378906 158.464844 219.933594 160.421875 221.265625 162.265625 C 222.949219 164.597656 223.761719 166.699219 223.78125 169.671875 C 223.792969 171.582031 224.136719 173.078125 225.226562 174.605469 C 226.011719 175.707031 226.625 176.945312 227.035156 178.253906 C 227.050781 178.289062 227.058594 178.324219 227.070312 178.359375 C 227.960938 181.140625 229.554688 183.628906 230.429688 186.410156 C 231.226562 188.945312 231.476562 191.589844 231.535156 194.230469 C 231.574219 196.027344 231.511719 197.871094 230.933594 199.589844 C 230.785156 200.019531 230.574219 200.882812 230.207031 201.160156 C 233.0625 199.011719 233.976562 194.105469 233.996094 190.628906 C 234.019531 186.296875 232.949219 182.214844 234.007812 177.878906 C 234.425781 176.148438 235.171875 174.476562 236.285156 173.132812 C 237.078125 172.164062 238.734375 170.441406 239.996094 170.363281 C 240.847656 170.308594 241.792969 170.933594 242.054688 171.824219 C 242.210938 172.371094 242.066406 172.976562 241.785156 173.464844 C 240.585938 175.550781 238.828125 176.707031 238.203125 179.242188 C 237.277344 182.992188 238.164062 186.777344 238.582031 190.527344 C 238.984375 194.113281 238.675781 197.835938 237.335938 201.210938 C 235.929688 204.75 233.046875 208.636719 229.265625 209.707031 C 229.105469 209.75 228.941406 209.761719 228.777344 209.78125 C 228.296875 209.828125 227.945312 210.269531 228.035156 210.765625 C 228.101562 211.140625 228.503906 211.445312 228.886719 211.445312 L 274.921875 211.445312 L 274.921875 209.519531 L 234.175781 209.519531 " fill-opacity="1" fill-rule="nonzero"/></g></svg>