<svg xmlns="http://www.w3.org/2000/svg" xmlns:xlink="http://www.w3.org/1999/xlink" width="500" zoomAndPan="magnify" viewBox="0 0 375 374.999991" height="500" preserveAspectRatio="xMidYMid meet" version="1.0"><defs><g/><clipPath id="732aedfcd3"><path d="M 100.179688 113 L 274.929688 113 L 274.929688 211.71875 L 100.179688 211.71875 Z M 100.179688 113 " clip-rule="nonzero"/></clipPath></defs><rect x="-37.5" width="450" fill="#ffffff" y="-37.499999" height="449.999989" fill-opacity="1"/><rect x="-37.5" width="450" fill="#ffffff" y="-37.499999" height="449.999989" fill-opacity="1"/><g fill="#cb6ce6" fill-opacity="1"><g transform="translate(56.373707, 248.138187)"><g><path d="M 2.921875 -22.265625 L 11.796875 -22.265625 C 14.597656 -22.265625 16.765625 -21.597656 18.296875 -20.265625 C 19.835938 -18.941406 20.609375 -17.070312 20.609375 -14.65625 C 20.609375 -12.132812 19.835938 -10.175781 18.296875 -8.78125 C 16.765625 -7.394531 14.597656 -6.703125 11.796875 -6.703125 L 6.671875 -6.703125 L 6.671875 0 L 2.921875 0 Z M 6.671875 -18.890625 L 6.671875 -10.078125 L 11.640625 -10.078125 C 15.222656 -10.078125 17.015625 -11.570312 17.015625 -14.5625 C 17.015625 -17.445312 15.222656 -18.890625 11.640625 -18.890625 Z M 6.671875 -18.890625 "/></g></g></g><g fill="#cb6ce6" fill-opacity="1"><g transform="translate(79.424023, 248.138187)"><g><path d="M 17.296875 -5.03125 L 6.078125 -5.03125 L 3.9375 0 L 0.03125 0 L 9.859375 -22.265625 L 13.703125 -22.265625 L 23.4375 0 L 19.421875 0 Z M 15.859375 -8.359375 L 11.671875 -18.25 L 7.46875 -8.359375 Z M 15.859375 -8.359375 "/></g></g></g><g fill="#cb6ce6" fill-opacity="1"><g transform="translate(104.540879, 248.138187)"><g><path d="M 25.8125 0 L 21.96875 0 L 16.6875 -17.359375 L 11.34375 0 L 7.46875 0 L 0.09375 -22.265625 L 4.140625 -22.265625 L 9.546875 -4.171875 L 14.90625 -22.21875 L 18.59375 -22.265625 L 24 -4.171875 L 29.375 -22.265625 L 33.265625 -22.265625 Z M 25.8125 0 "/></g></g></g><g fill="#cb6ce6" fill-opacity="1"><g transform="translate(139.132023, 248.138187)"><g/></g></g><g fill="#cb6ce6" fill-opacity="1"><g transform="translate(148.988264, 248.138187)"><g><path d="M 12.78125 -22.359375 C 14.351562 -22.359375 15.882812 -22.054688 17.375 -21.453125 C 18.875 -20.847656 20.160156 -20.003906 21.234375 -18.921875 L 19.046875 -16.1875 C 18.242188 -17.050781 17.289062 -17.738281 16.1875 -18.25 C 15.082031 -18.757812 13.96875 -19.015625 12.84375 -19.015625 C 10.613281 -19.015625 8.726562 -18.253906 7.1875 -16.734375 C 5.65625 -15.222656 4.890625 -13.375 4.890625 -11.1875 C 4.890625 -8.988281 5.65625 -7.128906 7.1875 -5.609375 C 8.726562 -4.097656 10.613281 -3.34375 12.84375 -3.34375 C 15.15625 -3.34375 17.222656 -4.222656 19.046875 -5.984375 L 21.265625 -3.5 C 20.128906 -2.375 18.796875 -1.484375 17.265625 -0.828125 C 15.734375 -0.171875 14.195312 0.15625 12.65625 0.15625 C 9.394531 0.15625 6.648438 -0.925781 4.421875 -3.09375 C 2.191406 -5.269531 1.078125 -7.957031 1.078125 -11.15625 C 1.078125 -14.320312 2.207031 -16.976562 4.46875 -19.125 C 6.726562 -21.28125 9.5 -22.359375 12.78125 -22.359375 Z M 12.78125 -22.359375 "/></g></g></g><g fill="#cb6ce6" fill-opacity="1"><g transform="translate(172.801609, 248.138187)"><g><path d="M 4.484375 -19.125 C 6.753906 -21.28125 9.550781 -22.359375 12.875 -22.359375 C 16.207031 -22.359375 19.003906 -21.28125 21.265625 -19.125 C 23.535156 -16.976562 24.671875 -14.3125 24.671875 -11.125 C 24.671875 -7.945312 23.535156 -5.269531 21.265625 -3.09375 C 19.003906 -0.925781 16.207031 0.15625 12.875 0.15625 C 9.550781 0.15625 6.753906 -0.925781 4.484375 -3.09375 C 2.210938 -5.269531 1.078125 -7.945312 1.078125 -11.125 C 1.078125 -14.3125 2.210938 -16.976562 4.484375 -19.125 Z M 12.90625 -18.984375 C 10.707031 -18.984375 8.820312 -18.222656 7.25 -16.703125 C 5.675781 -15.191406 4.890625 -13.332031 4.890625 -11.125 C 4.890625 -8.925781 5.679688 -7.054688 7.265625 -5.515625 C 8.847656 -3.984375 10.726562 -3.21875 12.90625 -3.21875 C 15.09375 -3.21875 16.957031 -3.984375 18.5 -5.515625 C 20.050781 -7.054688 20.828125 -8.925781 20.828125 -11.125 C 20.828125 -13.332031 20.050781 -15.191406 18.5 -16.703125 C 16.957031 -18.222656 15.09375 -18.984375 12.90625 -18.984375 Z M 12.90625 -18.984375 "/></g></g></g><g fill="#cb6ce6" fill-opacity="1"><g transform="translate(200.207552, 248.138187)"><g><path d="M 22.21875 0 L 18.53125 0 L 6.671875 -15.96875 L 6.671875 0 L 2.921875 0 L 2.921875 -22.265625 L 6.609375 -22.265625 L 18.53125 -6.265625 L 18.53125 -22.265625 L 22.21875 -22.265625 Z M 22.21875 0 "/></g></g></g><g fill="#cb6ce6" fill-opacity="1"><g transform="translate(227.041222, 248.138187)"><g><path d="M 22.21875 0 L 18.53125 0 L 6.671875 -15.96875 L 6.671875 0 L 2.921875 0 L 2.921875 -22.265625 L 6.609375 -22.265625 L 18.53125 -6.265625 L 18.53125 -22.265625 L 22.21875 -22.265625 Z M 22.21875 0 "/></g></g></g><g fill="#cb6ce6" fill-opacity="1"><g transform="translate(253.874892, 248.138187)"><g><path d="M 18.828125 -18.890625 L 6.671875 -18.890625 L 6.671875 -12.875 L 17.546875 -12.875 L 17.546875 -9.5 L 6.671875 -9.5 L 6.671875 -3.375 L 19.203125 -3.375 L 19.203125 0 L 2.921875 0 L 2.921875 -22.265625 L 18.828125 -22.265625 Z M 18.828125 -18.890625 "/></g></g></g><g fill="#cb6ce6" fill-opacity="1"><g transform="translate(276.384733, 248.138187)"><g><path d="M 12.78125 -22.359375 C 14.351562 -22.359375 15.882812 -22.054688 17.375 -21.453125 C 18.875 -20.847656 20.160156 -20.003906 21.234375 -18.921875 L 19.046875 -16.1875 C 18.242188 -17.050781 17.289062 -17.738281 16.1875 -18.25 C 15.082031 -18.757812 13.96875 -19.015625 12.84375 -19.015625 C 10.613281 -19.015625 8.726562 -18.253906 7.1875 -16.734375 C 5.65625 -15.222656 4.890625 -13.375 4.890625 -11.1875 C 4.890625 -8.988281 5.65625 -7.128906 7.1875 -5.609375 C 8.726562 -4.097656 10.613281 -3.34375 12.84375 -3.34375 C 15.15625 -3.34375 17.222656 -4.222656 19.046875 -5.984375 L 21.265625 -3.5 C 20.128906 -2.375 18.796875 -1.484375 17.265625 -0.828125 C 15.734375 -0.171875 14.195312 0.15625 12.65625 0.15625 C 9.394531 0.15625 6.648438 -0.925781 4.421875 -3.09375 C 2.191406 -5.269531 1.078125 -7.957031 1.078125 -11.15625 C 1.078125 -14.320312 2.207031 -16.976562 4.46875 -19.125 C 6.726562 -21.28125 9.5 -22.359375 12.78125 -22.359375 Z M 12.78125 -22.359375 "/></g></g></g><g fill="#cb6ce6" fill-opacity="1"><g transform="translate(300.198078, 248.138187)"><g><path d="M 18.125 -18.890625 L 11.0625 -18.890625 L 11.0625 0 L 7.3125 0 L 7.3125 -18.890625 L 0.28125 -18.890625 L 0.28125 -22.265625 L 18.125 -22.265625 Z M 18.125 -18.890625 "/></g></g></g><g fill="#737373" fill-opacity="1"><g transform="translate(131.857863, 261.574552)"><g><path d="M 3.015625 -1.859375 L 3.015625 0 L 2.078125 0 L 2.078125 -1.828125 L 0.015625 -5.5625 L 0.953125 -5.5625 L 2.546875 -2.859375 L 4.109375 -5.5625 L 5.0625 -5.5625 Z M 3.015625 -1.859375 "/></g></g></g><g fill="#737373" fill-opacity="1"><g transform="translate(140.1786, 261.574552)"><g><path d="M 1.109375 -4.78125 C 1.679688 -5.320312 2.382812 -5.59375 3.21875 -5.59375 C 4.050781 -5.59375 4.75 -5.320312 5.3125 -4.78125 C 5.882812 -4.25 6.171875 -3.582031 6.171875 -2.78125 C 6.171875 -1.988281 5.882812 -1.316406 5.3125 -0.765625 C 4.75 -0.222656 4.050781 0.046875 3.21875 0.046875 C 2.382812 0.046875 1.679688 -0.222656 1.109375 -0.765625 C 0.546875 -1.316406 0.265625 -1.988281 0.265625 -2.78125 C 0.265625 -3.582031 0.546875 -4.25 1.109375 -4.78125 Z M 3.234375 -4.75 C 2.679688 -4.75 2.207031 -4.554688 1.8125 -4.171875 C 1.414062 -3.796875 1.21875 -3.332031 1.21875 -2.78125 C 1.21875 -2.226562 1.414062 -1.757812 1.8125 -1.375 C 2.207031 -0.988281 2.675781 -0.796875 3.21875 -0.796875 C 3.769531 -0.796875 4.238281 -0.988281 4.625 -1.375 C 5.007812 -1.757812 5.203125 -2.226562 5.203125 -2.78125 C 5.203125 -3.332031 5.007812 -3.796875 4.625 -4.171875 C 4.238281 -4.554688 3.773438 -4.75 3.234375 -4.75 Z M 3.234375 -4.75 "/></g></g></g><g fill="#737373" fill-opacity="1"><g transform="translate(149.873865, 261.574552)"><g><path d="M 5.46875 -5.5625 L 5.46875 -2.3125 C 5.46875 -1.582031 5.25 -1.003906 4.8125 -0.578125 C 4.382812 -0.160156 3.796875 0.046875 3.046875 0.046875 C 2.296875 0.046875 1.703125 -0.160156 1.265625 -0.578125 C 0.835938 -1.003906 0.625 -1.582031 0.625 -2.3125 L 0.625 -5.5625 L 1.5625 -5.5625 L 1.5625 -2.3125 C 1.5625 -1.84375 1.691406 -1.472656 1.953125 -1.203125 C 2.222656 -0.929688 2.585938 -0.796875 3.046875 -0.796875 C 3.503906 -0.796875 3.863281 -0.925781 4.125 -1.1875 C 4.394531 -1.457031 4.53125 -1.832031 4.53125 -2.3125 L 4.53125 -5.5625 Z M 5.46875 -5.5625 "/></g></g></g><g fill="#737373" fill-opacity="1"><g transform="translate(159.20365, 261.574552)"><g><path d="M 4.265625 0 L 3.25 -1.6875 C 3.195312 -1.675781 3.109375 -1.671875 2.984375 -1.671875 L 1.671875 -1.671875 L 1.671875 0 L 0.734375 0 L 0.734375 -5.5625 L 2.984375 -5.5625 C 3.703125 -5.5625 4.253906 -5.394531 4.640625 -5.0625 C 5.035156 -4.738281 5.234375 -4.273438 5.234375 -3.671875 C 5.234375 -3.222656 5.132812 -2.84375 4.9375 -2.53125 C 4.738281 -2.226562 4.453125 -2.003906 4.078125 -1.859375 L 5.328125 0 Z M 1.671875 -2.515625 L 2.984375 -2.515625 C 3.890625 -2.515625 4.34375 -2.890625 4.34375 -3.640625 C 4.34375 -4.359375 3.890625 -4.71875 2.984375 -4.71875 L 1.671875 -4.71875 Z M 1.671875 -2.515625 "/></g></g></g><g fill="#737373" fill-opacity="1"><g transform="translate(168.20768, 261.574552)"><g/></g></g><g fill="#737373" fill-opacity="1"><g transform="translate(173.517181, 261.574552)"><g><path d="M 1.671875 -0.84375 L 4.078125 -0.84375 L 4.078125 0 L 0.734375 0 L 0.734375 -5.5625 L 1.671875 -5.5625 Z M 1.671875 -0.84375 "/></g></g></g><g fill="#737373" fill-opacity="1"><g transform="translate(181.019561, 261.574552)"><g><path d="M 1.109375 -4.78125 C 1.679688 -5.320312 2.382812 -5.59375 3.21875 -5.59375 C 4.050781 -5.59375 4.75 -5.320312 5.3125 -4.78125 C 5.882812 -4.25 6.171875 -3.582031 6.171875 -2.78125 C 6.171875 -1.988281 5.882812 -1.316406 5.3125 -0.765625 C 4.75 -0.222656 4.050781 0.046875 3.21875 0.046875 C 2.382812 0.046875 1.679688 -0.222656 1.109375 -0.765625 C 0.546875 -1.316406 0.265625 -1.988281 0.265625 -2.78125 C 0.265625 -3.582031 0.546875 -4.25 1.109375 -4.78125 Z M 3.234375 -4.75 C 2.679688 -4.75 2.207031 -4.554688 1.8125 -4.171875 C 1.414062 -3.796875 1.21875 -3.332031 1.21875 -2.78125 C 1.21875 -2.226562 1.414062 -1.757812 1.8125 -1.375 C 2.207031 -0.988281 2.675781 -0.796875 3.21875 -0.796875 C 3.769531 -0.796875 4.238281 -0.988281 4.625 -1.375 C 5.007812 -1.757812 5.203125 -2.226562 5.203125 -2.78125 C 5.203125 -3.332031 5.007812 -3.796875 4.625 -4.171875 C 4.238281 -4.554688 3.773438 -4.75 3.234375 -4.75 Z M 3.234375 -4.75 "/></g></g></g><g fill="#737373" fill-opacity="1"><g transform="translate(190.714823, 261.574552)"><g><path d="M 3.203125 -5.59375 C 3.585938 -5.59375 3.96875 -5.515625 4.34375 -5.359375 C 4.71875 -5.210938 5.039062 -5.003906 5.3125 -4.734375 L 4.765625 -4.046875 C 4.566406 -4.265625 4.328125 -4.4375 4.046875 -4.5625 C 3.773438 -4.6875 3.5 -4.75 3.21875 -4.75 C 2.65625 -4.75 2.179688 -4.5625 1.796875 -4.1875 C 1.410156 -3.8125 1.21875 -3.347656 1.21875 -2.796875 C 1.21875 -2.242188 1.410156 -1.773438 1.796875 -1.390625 C 2.179688 -1.015625 2.65625 -0.828125 3.21875 -0.828125 C 3.789062 -0.828125 4.304688 -1.050781 4.765625 -1.5 L 5.328125 -0.875 C 5.035156 -0.59375 4.695312 -0.367188 4.3125 -0.203125 C 3.9375 -0.0351562 3.554688 0.046875 3.171875 0.046875 C 2.347656 0.046875 1.65625 -0.222656 1.09375 -0.765625 C 0.539062 -1.316406 0.265625 -1.992188 0.265625 -2.796875 C 0.265625 -3.585938 0.546875 -4.25 1.109375 -4.78125 C 1.679688 -5.320312 2.378906 -5.59375 3.203125 -5.59375 Z M 3.203125 -5.59375 "/></g></g></g><g fill="#737373" fill-opacity="1"><g transform="translate(199.512273, 261.574552)"><g><path d="M 4.328125 -1.25 L 1.515625 -1.25 L 0.984375 0 L 0.015625 0 L 2.46875 -5.5625 L 3.421875 -5.5625 L 5.859375 0 L 4.859375 0 Z M 3.96875 -2.09375 L 2.921875 -4.5625 L 1.875 -2.09375 Z M 3.96875 -2.09375 "/></g></g></g><g fill="#737373" fill-opacity="1"><g transform="translate(208.63548, 261.574552)"><g><path d="M 1.671875 -0.84375 L 4.078125 -0.84375 L 4.078125 0 L 0.734375 0 L 0.734375 -5.5625 L 1.671875 -5.5625 Z M 1.671875 -0.84375 "/></g></g></g><g fill="#737373" fill-opacity="1"><g transform="translate(216.13786, 261.574552)"><g/></g></g><g fill="#737373" fill-opacity="1"><g transform="translate(221.447357, 261.574552)"><g><path d="M 0.734375 -5.5625 L 2.953125 -5.5625 C 3.648438 -5.5625 4.191406 -5.394531 4.578125 -5.0625 C 4.960938 -4.738281 5.15625 -4.273438 5.15625 -3.671875 C 5.15625 -3.035156 4.960938 -2.539062 4.578125 -2.1875 C 4.191406 -1.84375 3.648438 -1.671875 2.953125 -1.671875 L 1.671875 -1.671875 L 1.671875 0 L 0.734375 0 Z M 1.671875 -4.71875 L 1.671875 -2.515625 L 2.90625 -2.515625 C 3.800781 -2.515625 4.25 -2.890625 4.25 -3.640625 C 4.25 -4.359375 3.800781 -4.71875 2.90625 -4.71875 Z M 1.671875 -4.71875 "/></g></g></g><g fill="#737373" fill-opacity="1"><g transform="translate(230.054126, 261.574552)"><g><path d="M 4.703125 -4.71875 L 1.671875 -4.71875 L 1.671875 -3.21875 L 4.390625 -3.21875 L 4.390625 -2.375 L 1.671875 -2.375 L 1.671875 -0.84375 L 4.796875 -0.84375 L 4.796875 0 L 0.734375 0 L 0.734375 -5.5625 L 4.703125 -5.5625 Z M 4.703125 -4.71875 "/></g></g></g><g fill="#737373" fill-opacity="1"><g transform="translate(238.525821, 261.574552)"><g><path d="M 4.53125 -4.71875 L 2.765625 -4.71875 L 2.765625 0 L 1.828125 0 L 1.828125 -4.71875 L 0.078125 -4.71875 L 0.078125 -5.5625 L 4.53125 -5.5625 Z M 4.53125 -4.71875 "/></g></g></g><g fill="#737373" fill-opacity="1"><g transform="translate(146.424268, 270.574552)"><g><path d="M 3.203125 -5.59375 C 3.585938 -5.59375 3.96875 -5.515625 4.34375 -5.359375 C 4.71875 -5.210938 5.039062 -5.003906 5.3125 -4.734375 L 4.765625 -4.046875 C 4.566406 -4.265625 4.328125 -4.4375 4.046875 -4.5625 C 3.773438 -4.6875 3.5 -4.75 3.21875 -4.75 C 2.65625 -4.75 2.179688 -4.5625 1.796875 -4.1875 C 1.410156 -3.8125 1.21875 -3.347656 1.21875 -2.796875 C 1.21875 -2.242188 1.410156 -1.773438 1.796875 -1.390625 C 2.179688 -1.015625 2.65625 -0.828125 3.21875 -0.828125 C 3.789062 -0.828125 4.304688 -1.050781 4.765625 -1.5 L 5.328125 -0.875 C 5.035156 -0.59375 4.695312 -0.367188 4.3125 -0.203125 C 3.9375 -0.0351562 3.554688 0.046875 3.171875 0.046875 C 2.347656 0.046875 1.65625 -0.222656 1.09375 -0.765625 C 0.539062 -1.316406 0.265625 -1.992188 0.265625 -2.796875 C 0.265625 -3.585938 0.546875 -4.25 1.109375 -4.78125 C 1.679688 -5.320312 2.378906 -5.59375 3.203125 -5.59375 Z M 3.203125 -5.59375 "/></g></g></g><g fill="#737373" fill-opacity="1"><g transform="translate(155.221721, 270.574552)"><g><path d="M 1.109375 -4.78125 C 1.679688 -5.320312 2.382812 -5.59375 3.21875 -5.59375 C 4.050781 -5.59375 4.75 -5.320312 5.3125 -4.78125 C 5.882812 -4.25 6.171875 -3.582031 6.171875 -2.78125 C 6.171875 -1.988281 5.882812 -1.316406 5.3125 -0.765625 C 4.75 -0.222656 4.050781 0.046875 3.21875 0.046875 C 2.382812 0.046875 1.679688 -0.222656 1.109375 -0.765625 C 0.546875 -1.316406 0.265625 -1.988281 0.265625 -2.78125 C 0.265625 -3.582031 0.546875 -4.25 1.109375 -4.78125 Z M 3.234375 -4.75 C 2.679688 -4.75 2.207031 -4.554688 1.8125 -4.171875 C 1.414062 -3.796875 1.21875 -3.332031 1.21875 -2.78125 C 1.21875 -2.226562 1.414062 -1.757812 1.8125 -1.375 C 2.207031 -0.988281 2.675781 -0.796875 3.21875 -0.796875 C 3.769531 -0.796875 4.238281 -0.988281 4.625 -1.375 C 5.007812 -1.757812 5.203125 -2.226562 5.203125 -2.78125 C 5.203125 -3.332031 5.007812 -3.796875 4.625 -4.171875 C 4.238281 -4.554688 3.773438 -4.75 3.234375 -4.75 Z M 3.234375 -4.75 "/></g></g></g><g fill="#737373" fill-opacity="1"><g transform="translate(164.916985, 270.574552)"><g><path d="M 6.609375 0 L 5.75 0 L 5.734375 -4.15625 L 3.984375 -0.578125 L 3.375 -0.578125 L 1.609375 -4.15625 L 1.609375 0 L 0.734375 0 L 0.734375 -5.5625 L 1.84375 -5.5625 L 3.6875 -1.875 L 5.515625 -5.5625 L 6.609375 -5.5625 Z M 6.609375 0 "/></g></g></g><g fill="#737373" fill-opacity="1"><g transform="translate(175.525956, 270.574552)"><g><path d="M 6.609375 0 L 5.75 0 L 5.734375 -4.15625 L 3.984375 -0.578125 L 3.375 -0.578125 L 1.609375 -4.15625 L 1.609375 0 L 0.734375 0 L 0.734375 -5.5625 L 1.84375 -5.5625 L 3.6875 -1.875 L 5.515625 -5.5625 L 6.609375 -5.5625 Z M 6.609375 0 "/></g></g></g><g fill="#737373" fill-opacity="1"><g transform="translate(186.134929, 270.574552)"><g><path d="M 5.46875 -5.5625 L 5.46875 -2.3125 C 5.46875 -1.582031 5.25 -1.003906 4.8125 -0.578125 C 4.382812 -0.160156 3.796875 0.046875 3.046875 0.046875 C 2.296875 0.046875 1.703125 -0.160156 1.265625 -0.578125 C 0.835938 -1.003906 0.625 -1.582031 0.625 -2.3125 L 0.625 -5.5625 L 1.5625 -5.5625 L 1.5625 -2.3125 C 1.5625 -1.84375 1.691406 -1.472656 1.953125 -1.203125 C 2.222656 -0.929688 2.585938 -0.796875 3.046875 -0.796875 C 3.503906 -0.796875 3.863281 -0.925781 4.125 -1.1875 C 4.394531 -1.457031 4.53125 -1.832031 4.53125 -2.3125 L 4.53125 -5.5625 Z M 5.46875 -5.5625 "/></g></g></g><g fill="#737373" fill-opacity="1"><g transform="translate(195.464716, 270.574552)"><g><path d="M 5.5625 0 L 4.640625 0 L 1.671875 -4 L 1.671875 0 L 0.734375 0 L 0.734375 -5.5625 L 1.65625 -5.5625 L 4.640625 -1.5625 L 4.640625 -5.5625 L 5.5625 -5.5625 Z M 5.5625 0 "/></g></g></g><g fill="#737373" fill-opacity="1"><g transform="translate(205.016961, 270.574552)"><g><path d="M 1.671875 0 L 0.734375 0 L 0.734375 -5.5625 L 1.671875 -5.5625 Z M 1.671875 0 "/></g></g></g><g fill="#737373" fill-opacity="1"><g transform="translate(210.676041, 270.574552)"><g><path d="M 4.53125 -4.71875 L 2.765625 -4.71875 L 2.765625 0 L 1.828125 0 L 1.828125 -4.71875 L 0.078125 -4.71875 L 0.078125 -5.5625 L 4.53125 -5.5625 Z M 4.53125 -4.71875 "/></g></g></g><g fill="#737373" fill-opacity="1"><g transform="translate(218.535958, 270.574552)"><g><path d="M 3.015625 -1.859375 L 3.015625 0 L 2.078125 0 L 2.078125 -1.828125 L 0.015625 -5.5625 L 0.953125 -5.5625 L 2.546875 -2.859375 L 4.109375 -5.5625 L 5.0625 -5.5625 Z M 3.015625 -1.859375 "/></g></g></g><g fill="#737373" fill-opacity="1"><g transform="translate(226.856693, 270.574552)"><g><path d="M 0.859375 -0.96875 C 0.992188 -0.96875 1.109375 -0.921875 1.203125 -0.828125 C 1.304688 -0.734375 1.359375 -0.609375 1.359375 -0.453125 C 1.359375 -0.304688 1.304688 -0.164062 1.203125 -0.03125 L 0.75 0.65625 L 0.28125 0.65625 L 0.59375 -0.046875 C 0.445312 -0.140625 0.375 -0.273438 0.375 -0.453125 C 0.375 -0.597656 0.421875 -0.71875 0.515625 -0.8125 C 0.609375 -0.914062 0.722656 -0.96875 0.859375 -0.96875 Z M 0.859375 -0.96875 "/></g></g></g><g fill="#737373" fill-opacity="1"><g transform="translate(148.814893, 279.574551)"><g><path d="M 3.203125 -5.59375 C 3.585938 -5.59375 3.96875 -5.515625 4.34375 -5.359375 C 4.71875 -5.210938 5.039062 -5.003906 5.3125 -4.734375 L 4.765625 -4.046875 C 4.566406 -4.265625 4.328125 -4.4375 4.046875 -4.5625 C 3.773438 -4.6875 3.5 -4.75 3.21875 -4.75 C 2.65625 -4.75 2.179688 -4.5625 1.796875 -4.1875 C 1.410156 -3.8125 1.21875 -3.347656 1.21875 -2.796875 C 1.21875 -2.242188 1.410156 -1.773438 1.796875 -1.390625 C 2.179688 -1.015625 2.65625 -0.828125 3.21875 -0.828125 C 3.789062 -0.828125 4.304688 -1.050781 4.765625 -1.5 L 5.328125 -0.875 C 5.035156 -0.59375 4.695312 -0.367188 4.3125 -0.203125 C 3.9375 -0.0351562 3.554688 0.046875 3.171875 0.046875 C 2.347656 0.046875 1.65625 -0.222656 1.09375 -0.765625 C 0.539062 -1.316406 0.265625 -1.992188 0.265625 -2.796875 C 0.265625 -3.585938 0.546875 -4.25 1.109375 -4.78125 C 1.679688 -5.320312 2.378906 -5.59375 3.203125 -5.59375 Z M 3.203125 -5.59375 "/></g></g></g><g fill="#737373" fill-opacity="1"><g transform="translate(157.612346, 279.574551)"><g><path d="M 1.109375 -4.78125 C 1.679688 -5.320312 2.382812 -5.59375 3.21875 -5.59375 C 4.050781 -5.59375 4.75 -5.320312 5.3125 -4.78125 C 5.882812 -4.25 6.171875 -3.582031 6.171875 -2.78125 C 6.171875 -1.988281 5.882812 -1.316406 5.3125 -0.765625 C 4.75 -0.222656 4.050781 0.046875 3.21875 0.046875 C 2.382812 0.046875 1.679688 -0.222656 1.109375 -0.765625 C 0.546875 -1.316406 0.265625 -1.988281 0.265625 -2.78125 C 0.265625 -3.582031 0.546875 -4.25 1.109375 -4.78125 Z M 3.234375 -4.75 C 2.679688 -4.75 2.207031 -4.554688 1.8125 -4.171875 C 1.414062 -3.796875 1.21875 -3.332031 1.21875 -2.78125 C 1.21875 -2.226562 1.414062 -1.757812 1.8125 -1.375 C 2.207031 -0.988281 2.675781 -0.796875 3.21875 -0.796875 C 3.769531 -0.796875 4.238281 -0.988281 4.625 -1.375 C 5.007812 -1.757812 5.203125 -2.226562 5.203125 -2.78125 C 5.203125 -3.332031 5.007812 -3.796875 4.625 -4.171875 C 4.238281 -4.554688 3.773438 -4.75 3.234375 -4.75 Z M 3.234375 -4.75 "/></g></g></g><g fill="#737373" fill-opacity="1"><g transform="translate(167.30761, 279.574551)"><g><path d="M 5.5625 0 L 4.640625 0 L 1.671875 -4 L 1.671875 0 L 0.734375 0 L 0.734375 -5.5625 L 1.65625 -5.5625 L 4.640625 -1.5625 L 4.640625 -5.5625 L 5.5625 -5.5625 Z M 5.5625 0 "/></g></g></g><g fill="#737373" fill-opacity="1"><g transform="translate(176.859857, 279.574551)"><g><path d="M 5.5625 0 L 4.640625 0 L 1.671875 -4 L 1.671875 0 L 0.734375 0 L 0.734375 -5.5625 L 1.65625 -5.5625 L 4.640625 -1.5625 L 4.640625 -5.5625 L 5.5625 -5.5625 Z M 5.5625 0 "/></g></g></g><g fill="#737373" fill-opacity="1"><g transform="translate(186.412105, 279.574551)"><g><path d="M 4.703125 -4.71875 L 1.671875 -4.71875 L 1.671875 -3.21875 L 4.390625 -3.21875 L 4.390625 -2.375 L 1.671875 -2.375 L 1.671875 -0.84375 L 4.796875 -0.84375 L 4.796875 0 L 0.734375 0 L 0.734375 -5.5625 L 4.703125 -5.5625 Z M 4.703125 -4.71875 "/></g></g></g><g fill="#737373" fill-opacity="1"><g transform="translate(194.883802, 279.574551)"><g><path d="M 3.203125 -5.59375 C 3.585938 -5.59375 3.96875 -5.515625 4.34375 -5.359375 C 4.71875 -5.210938 5.039062 -5.003906 5.3125 -4.734375 L 4.765625 -4.046875 C 4.566406 -4.265625 4.328125 -4.4375 4.046875 -4.5625 C 3.773438 -4.6875 3.5 -4.75 3.21875 -4.75 C 2.65625 -4.75 2.179688 -4.5625 1.796875 -4.1875 C 1.410156 -3.8125 1.21875 -3.347656 1.21875 -2.796875 C 1.21875 -2.242188 1.410156 -1.773438 1.796875 -1.390625 C 2.179688 -1.015625 2.65625 -0.828125 3.21875 -0.828125 C 3.789062 -0.828125 4.304688 -1.050781 4.765625 -1.5 L 5.328125 -0.875 C 5.035156 -0.59375 4.695312 -0.367188 4.3125 -0.203125 C 3.9375 -0.0351562 3.554688 0.046875 3.171875 0.046875 C 2.347656 0.046875 1.65625 -0.222656 1.09375 -0.765625 C 0.539062 -1.316406 0.265625 -1.992188 0.265625 -2.796875 C 0.265625 -3.585938 0.546875 -4.25 1.109375 -4.78125 C 1.679688 -5.320312 2.378906 -5.59375 3.203125 -5.59375 Z M 3.203125 -5.59375 "/></g></g></g><g fill="#737373" fill-opacity="1"><g transform="translate(203.681253, 279.574551)"><g><path d="M 4.53125 -4.71875 L 2.765625 -4.71875 L 2.765625 0 L 1.828125 0 L 1.828125 -4.71875 L 0.078125 -4.71875 L 0.078125 -5.5625 L 4.53125 -5.5625 Z M 4.53125 -4.71875 "/></g></g></g><g fill="#737373" fill-opacity="1"><g transform="translate(211.541169, 279.574551)"><g><path d="M 4.703125 -4.71875 L 1.671875 -4.71875 L 1.671875 -3.21875 L 4.390625 -3.21875 L 4.390625 -2.375 L 1.671875 -2.375 L 1.671875 -0.84375 L 4.796875 -0.84375 L 4.796875 0 L 0.734375 0 L 0.734375 -5.5625 L 4.703125 -5.5625 Z M 4.703125 -4.71875 "/></g></g></g><g fill="#737373" fill-opacity="1"><g transform="translate(220.012863, 279.574551)"><g><path d="M 0.734375 -5.5625 L 3.015625 -5.5625 C 3.847656 -5.5625 4.535156 -5.300781 5.078125 -4.78125 C 5.617188 -4.257812 5.890625 -3.59375 5.890625 -2.78125 C 5.890625 -1.976562 5.613281 -1.3125 5.0625 -0.78125 C 4.519531 -0.257812 3.828125 0 2.984375 0 L 0.734375 0 Z M 1.671875 -4.71875 L 1.671875 -0.84375 L 3.03125 -0.84375 C 3.582031 -0.84375 4.039062 -1.023438 4.40625 -1.390625 C 4.769531 -1.753906 4.953125 -2.21875 4.953125 -2.78125 C 4.953125 -3.34375 4.765625 -3.804688 4.390625 -4.171875 C 4.015625 -4.535156 3.550781 -4.71875 3 -4.71875 Z M 1.671875 -4.71875 "/></g></g></g><g clip-path="url(#732aedfcd3)"><path fill="#cb6ce6" d="M 234.085938 209.621094 C 233.878906 209.621094 233.78125 209.363281 233.9375 209.230469 L 233.945312 209.226562 C 234.609375 208.652344 235.222656 208.007812 235.796875 207.34375 C 238.515625 204.183594 239.816406 199.902344 240.324219 195.832031 C 240.664062 193.101562 240.300781 190.511719 239.953125 188.007812 C 239.554688 185.15625 239.175781 182.460938 239.84375 179.742188 C 240.148438 178.519531 240.796875 177.710938 241.621094 176.6875 C 242.140625 176.039062 242.730469 175.304688 243.238281 174.417969 C 243.792969 173.449219 243.953125 172.347656 243.671875 171.386719 C 243.207031 169.792969 241.664062 168.636719 240.003906 168.636719 C 239.929688 168.636719 239.863281 168.640625 239.792969 168.644531 C 237.804688 168.765625 235.820312 170.835938 234.816406 172.0625 C 233.601562 173.535156 232.691406 175.421875 232.179688 177.523438 C 231.53125 180.199219 231.609375 182.746094 231.796875 185.207031 C 231.347656 183.96875 230.800781 182.796875 230.269531 181.664062 C 229.664062 180.375 229.09375 179.15625 228.6875 177.890625 L 228.65625 177.792969 C 228.191406 176.296875 227.496094 174.894531 226.597656 173.636719 C 225.808594 172.53125 225.496094 171.433594 225.484375 169.71875 C 225.460938 166.5 224.632812 164.050781 222.628906 161.273438 C 222.265625 160.769531 222.378906 160.226562 222.769531 158.910156 C 222.964844 158.25 223.183594 157.503906 223.257812 156.707031 C 223.546875 153.636719 222.421875 151.285156 221.335938 149.011719 C 220.910156 148.117188 220.335938 147.273438 220.015625 146.386719 C 219.796875 145.769531 219.609375 145.136719 219.414062 144.460938 C 219.105469 143.417969 218.632812 142.339844 218.152344 141.265625 C 217.597656 140.015625 217.03125 138.820312 216.023438 137.871094 C 215.085938 136.984375 213.691406 136.652344 212.488281 137.175781 C 211.273438 137.703125 210.8125 138.816406 210.46875 140.023438 C 210.164062 141.097656 209.902344 142.144531 209.808594 143.160156 C 209.769531 143.558594 209.738281 143.933594 209.691406 144.304688 C 209.675781 144.414062 209.660156 144.53125 209.644531 144.636719 C 209.621094 144.785156 209.515625 144.910156 209.371094 144.953125 C 209.253906 144.988281 209.125 145.023438 209.027344 145.050781 C 208.894531 145.085938 208.761719 145.125 208.632812 145.164062 C 207.460938 145.515625 206.34375 146.09375 205.105469 146.988281 L 205.054688 147.027344 C 205.015625 147.054688 204.96875 147.089844 204.921875 147.121094 C 204.746094 147.246094 204.511719 147.265625 204.324219 147.160156 C 203.945312 146.949219 203.445312 146.605469 203.105469 146.367188 C 201.933594 145.558594 200.71875 144.722656 199.34375 144.722656 C 198.550781 144.722656 197.824219 145.007812 197.238281 145.550781 C 195.453125 147.21875 197.042969 150.34375 197.894531 152.019531 C 197.925781 152.082031 197.957031 152.140625 197.980469 152.1875 C 198.347656 152.917969 198.757812 153.679688 199.3125 154.652344 C 199.507812 155 199.730469 155.3125 199.941406 155.617188 C 200.226562 156.019531 200.519531 156.441406 200.582031 156.722656 C 200.617188 156.882812 200.613281 157.101562 200.613281 157.410156 C 200.605469 158.324219 200.59375 159.710938 201.589844 162.050781 C 201.804688 162.550781 202.007812 162.964844 202.191406 163.332031 C 202.367188 163.683594 202.570312 164.085938 202.601562 164.25 C 202.652344 164.523438 202.617188 164.816406 202.539062 165.398438 C 202.464844 165.90625 202.378906 166.542969 202.355469 167.359375 C 202.328125 168.265625 202.339844 169.015625 202.355469 169.675781 C 202.378906 171.0625 202.378906 171.703125 202.113281 172.277344 C 201.449219 173.691406 201.015625 175.242188 200.597656 176.742188 C 200.375 177.546875 200.160156 178.3125 199.921875 179.027344 C 199.019531 181.691406 198.410156 183.25 197.566406 185.402344 C 197.378906 185.878906 197.175781 186.390625 196.960938 186.953125 C 195.582031 190.488281 195.15625 195.433594 195.855469 199.863281 C 196.503906 203.972656 198.03125 207.050781 200.242188 209.128906 C 200.460938 209.335938 200.316406 209.707031 200.011719 209.707031 L 185.164062 209.707031 C 184.886719 209.707031 184.730469 209.390625 184.902344 209.171875 C 185.765625 208.085938 186.664062 206.960938 186.972656 206.589844 C 187.699219 205.734375 188.449219 204.84375 189.148438 203.929688 C 191.1875 201.273438 194.996094 193.84375 193.058594 189.074219 C 192.488281 187.667969 191.132812 185.890625 187.917969 185.421875 C 186.019531 185.140625 184.433594 185.605469 183.273438 186.1875 C 183.300781 186.066406 183.332031 185.9375 183.367188 185.800781 C 184.222656 182.320312 186.496094 173.070312 184.585938 161.898438 C 183.96875 158.296875 183.300781 155.570312 182.421875 153.058594 L 182.371094 152.914062 C 181.675781 150.921875 180.886719 148.660156 179.964844 146.738281 C 179.855469 146.511719 179.746094 146.300781 179.636719 146.097656 C 179.132812 145.15625 179.035156 144.871094 179.328125 144.445312 C 181.246094 141.640625 182.128906 138.882812 182.535156 137.066406 C 182.570312 136.917969 182.601562 136.753906 182.632812 136.585938 C 183.179688 137.21875 183.851562 137.714844 184.609375 138.023438 C 184.722656 138.066406 184.832031 138.089844 184.910156 138.105469 C 185.011719 138.164062 185.140625 138.234375 185.292969 138.296875 C 186.421875 138.757812 187.734375 138.375 188.480469 137.378906 C 189.207031 136.410156 189.429688 135.449219 189.648438 134.519531 C 189.730469 134.179688 189.8125 133.824219 189.921875 133.46875 C 190.3125 132.191406 190.898438 130.992188 191.515625 129.722656 C 192.089844 128.546875 192.683594 127.335938 193.109375 126.054688 C 194.078125 123.128906 193.554688 120.140625 191.738281 118.25 C 190.144531 116.59375 187.90625 115.6875 185.929688 115.019531 C 182.8125 113.96875 179.398438 113.671875 176.0625 114.15625 C 175.980469 114.167969 175.890625 114.191406 175.613281 114.257812 L 175.332031 114.328125 C 175.214844 114.355469 175.042969 114.378906 174.886719 114.3125 C 171.222656 112.753906 166.613281 112.785156 162.550781 114.390625 C 162.515625 114.402344 162.457031 114.394531 162.394531 114.375 C 162.339844 114.355469 162.289062 114.339844 162.234375 114.328125 L 161.964844 114.257812 C 161.6875 114.191406 161.597656 114.167969 161.515625 114.15625 C 158.179688 113.671875 154.765625 113.96875 151.648438 115.019531 C 148.429688 116.109375 144.097656 117.988281 143.628906 121.769531 C 143.453125 123.179688 143.664062 124.632812 144.25 126.085938 C 144.6875 127.160156 145.210938 128.195312 145.71875 129.203125 C 145.9375 129.636719 146.160156 130.070312 146.367188 130.5 C 147.078125 131.960938 147.398438 133.253906 147.550781 135.265625 C 147.671875 136.820312 148.414062 137.515625 149.015625 137.824219 C 150.039062 138.347656 151.433594 138.160156 152.847656 137.304688 C 153.539062 136.957031 154.199219 136.460938 154.738281 135.898438 C 155.363281 139.941406 156.917969 142.582031 157.570312 143.679688 C 157.65625 143.828125 157.730469 143.957031 157.769531 144.027344 C 158.144531 144.75 158.011719 145.101562 157.535156 146.097656 C 157.472656 146.226562 157.410156 146.363281 157.34375 146.5 C 157.109375 147.015625 156.84375 147.542969 156.589844 148.054688 C 156.214844 148.800781 155.828125 149.570312 155.5 150.347656 C 154.335938 153.125 153.414062 155.691406 152.675781 158.203125 C 152.410156 159.109375 152.160156 160.039062 151.933594 160.953125 C 150.921875 165.070312 150.425781 169.53125 150.453125 174.21875 C 150.476562 177.96875 151.050781 181.402344 151.660156 185.035156 C 151.722656 185.40625 151.785156 185.78125 151.84375 186.152344 C 151.851562 186.175781 151.851562 186.195312 151.847656 186.210938 C 150.371094 185.460938 148.753906 185.1875 147.160156 185.421875 C 145.296875 185.691406 143.699219 186.691406 142.664062 188.230469 C 141.429688 190.070312 141.097656 192.492188 141.730469 195.046875 C 142.148438 196.730469 142.816406 198.34375 143.839844 200.085938 C 140.949219 198.972656 138.871094 196.816406 137.523438 193.558594 C 136.53125 191.15625 135.25 191.015625 134.574219 191.148438 C 133.007812 191.449219 131.898438 193.734375 131.867188 196.699219 C 131.824219 201.683594 135.839844 206.351562 139.527344 209.285156 C 139.671875 209.398438 139.679688 209.742188 139.605469 209.871094 L 100.1875 209.707031 L 100.1875 211.554688 C 105.183594 211.582031 137.355469 211.777344 147.644531 211.542969 C 148.183594 211.53125 148.617188 211.25 148.617188 210.707031 C 148.617188 210.15625 148.171875 209.707031 147.617188 209.707031 L 146.851562 209.707031 C 145.160156 209.648438 144.183594 209.394531 142.910156 208.855469 C 138.769531 207.105469 134.789062 202.917969 133.816406 198.460938 C 133.480469 196.917969 133.492188 194.828125 134.28125 193.40625 C 134.390625 193.214844 134.53125 193.023438 134.734375 192.941406 C 135.332031 192.703125 135.746094 193.839844 135.90625 194.226562 C 137.671875 198.503906 141.082031 201.527344 145.660156 202.421875 C 146.007812 202.488281 146.367188 202.339844 146.5625 202.039062 C 146.753906 201.738281 146.75 201.355469 146.546875 201.0625 C 144.910156 198.695312 143.945312 196.710938 143.429688 194.625 C 142.917969 192.554688 143.164062 190.632812 144.117188 189.207031 C 144.875 188.082031 146.042969 187.355469 147.414062 187.152344 C 148.667969 186.972656 149.898438 187.179688 151.070312 187.78125 C 151.671875 188.085938 152.347656 188.042969 152.875 187.65625 C 153.421875 187.257812 153.691406 186.570312 153.574219 185.867188 C 153.511719 185.492188 153.449219 185.117188 153.386719 184.746094 C 152.789062 181.183594 152.226562 177.816406 152.203125 174.210938 C 152.179688 169.664062 152.660156 165.34375 153.632812 161.371094 C 153.855469 160.480469 154.097656 159.582031 154.355469 158.695312 C 155.078125 156.25 155.976562 153.742188 157.117188 151.023438 C 157.417969 150.304688 157.792969 149.558594 158.152344 148.839844 C 158.417969 148.316406 158.691406 147.773438 158.9375 147.234375 C 159 147.101562 159.058594 146.976562 159.117188 146.851562 C 159.609375 145.820312 160.121094 144.753906 159.324219 143.21875 C 159.265625 143.105469 159.183594 142.964844 159.074219 142.789062 C 158.367188 141.585938 156.480469 138.394531 156.246094 133.410156 C 156.230469 133.023438 155.953125 132.6875 155.570312 132.597656 C 155.191406 132.511719 154.796875 132.6875 154.605469 133.027344 C 154.328125 133.523438 154.078125 133.921875 153.816406 134.277344 C 153.378906 134.871094 152.726562 135.410156 152.035156 135.753906 C 152.015625 135.761719 151.996094 135.773438 151.976562 135.785156 C 151.121094 136.308594 150.269531 136.5 149.8125 136.265625 C 149.515625 136.113281 149.34375 135.730469 149.300781 135.128906 C 149.160156 133.273438 148.875 131.644531 147.941406 129.734375 C 147.730469 129.292969 147.507812 128.855469 147.285156 128.414062 C 146.792969 127.4375 146.28125 126.429688 145.875 125.425781 C 145.398438 124.253906 145.230469 123.09375 145.367188 121.984375 C 145.753906 118.859375 150.613281 117.21875 152.210938 116.679688 C 155.0625 115.71875 158.1875 115.441406 161.25 115.886719 C 161.300781 115.898438 161.410156 115.925781 161.546875 115.960938 L 161.804688 116.023438 C 162.269531 116.191406 162.765625 116.191406 163.195312 116.019531 C 166.78125 114.597656 171 114.5625 174.199219 115.921875 C 174.675781 116.128906 175.21875 116.164062 175.753906 116.027344 L 176.03125 115.960938 C 176.167969 115.925781 176.277344 115.898438 176.332031 115.886719 C 179.390625 115.445312 182.515625 115.71875 185.367188 116.679688 C 187.234375 117.3125 189.148438 118.085938 190.472656 119.460938 C 192.105469 121.160156 192.042969 123.695312 191.445312 125.503906 C 191.058594 126.671875 190.515625 127.78125 189.941406 128.953125 C 189.320312 130.230469 188.675781 131.546875 188.246094 132.957031 C 188.121094 133.367188 188.03125 133.75 187.941406 134.121094 C 187.742188 134.976562 187.585938 135.652344 187.078125 136.328125 C 186.808594 136.691406 186.339844 136.832031 185.949219 136.671875 C 185.902344 136.652344 185.832031 136.617188 185.761719 136.574219 C 185.714844 136.546875 185.667969 136.523438 185.625 136.496094 C 185.554688 136.457031 185.480469 136.429688 185.402344 136.414062 C 185.347656 136.402344 185.296875 136.394531 185.242188 136.382812 L 185.230469 136.382812 C 184.464844 136.058594 183.824219 135.4375 183.429688 134.628906 C 183.363281 134.496094 183.230469 134.164062 183.128906 133.902344 C 183.03125 133.667969 182.945312 133.445312 182.878906 133.300781 C 182.679688 132.859375 182.160156 132.664062 181.722656 132.859375 C 181.371094 133.019531 181.175781 133.375 181.210938 133.734375 C 181.210938 134.027344 181.152344 138.667969 177.878906 143.457031 C 176.957031 144.808594 177.585938 145.980469 178.089844 146.925781 C 178.191406 147.109375 178.292969 147.300781 178.386719 147.496094 C 179.265625 149.328125 180.039062 151.542969 180.71875 153.492188 L 180.769531 153.640625 C 181.613281 156.054688 182.257812 158.691406 182.855469 162.191406 C 184.707031 173.003906 182.574219 181.679688 181.664062 185.382812 C 181.515625 185.988281 181.410156 186.425781 181.351562 186.738281 C 181.25 187.308594 181.476562 187.867188 181.929688 188.167969 C 182.359375 188.453125 182.914062 188.449219 183.375 188.148438 C 184.296875 187.542969 185.792969 186.878906 187.664062 187.152344 C 189.613281 187.4375 190.847656 188.28125 191.433594 189.730469 C 192.859375 193.242188 190.164062 199.722656 187.757812 202.863281 C 187.082031 203.746094 186.347656 204.621094 185.632812 205.460938 C 185.003906 206.207031 184.355469 206.976562 183.738281 207.765625 C 183.640625 207.886719 182.046875 209.589844 181.828125 209.933594 C 181.828125 209.9375 181.828125 209.9375 181.824219 209.941406 C 181.632812 210.109375 181.511719 210.351562 181.511719 210.628906 C 181.511719 210.796875 181.558594 210.957031 181.640625 211.09375 C 181.800781 211.367188 182.09375 211.550781 182.433594 211.550781 L 204.644531 211.519531 C 205.019531 211.519531 205.359375 211.265625 205.4375 210.902344 C 205.542969 210.390625 205.15625 209.9375 204.664062 209.9375 L 204.632812 209.9375 C 204.179688 209.796875 203.734375 209.621094 203.304688 209.398438 C 196.835938 206.015625 196.175781 193.878906 198.621094 187.597656 C 199.828125 184.5 200.5 182.898438 201.609375 179.597656 C 202.316406 177.5 202.789062 175.039062 203.730469 173.035156 C 204.386719 171.628906 204.058594 170.222656 204.140625 167.414062 C 204.1875 165.722656 204.542969 164.921875 204.355469 163.917969 C 204.230469 163.253906 203.726562 162.503906 203.234375 161.351562 C 202 158.453125 202.574219 157.488281 202.328125 156.34375 C 202.121094 155.394531 201.335938 154.597656 200.863281 153.769531 C 200.417969 152.984375 199.984375 152.195312 199.578125 151.382812 C 199.210938 150.652344 197.597656 147.660156 198.460938 146.855469 C 200.136719 145.289062 203.15625 149.523438 204.976562 149.085938 C 205.410156 148.984375 205.785156 148.703125 206.152344 148.433594 C 207.09375 147.757812 208.054688 147.199219 209.148438 146.871094 C 209.929688 146.636719 210.816406 146.527344 211.210938 145.644531 C 211.363281 145.296875 211.410156 144.910156 211.460938 144.527344 C 211.628906 143.1875 211.816406 141.816406 212.1875 140.511719 C 212.425781 139.671875 212.921875 138.496094 213.992188 138.730469 C 215.34375 139.019531 216.027344 140.882812 216.519531 141.992188 C 217.238281 143.605469 217.738281 145.328125 218.335938 146.992188 C 219.5 150.234375 221.824219 152.859375 221.480469 156.542969 C 221.296875 158.511719 219.855469 160.472656 221.183594 162.320312 C 222.867188 164.65625 223.675781 166.753906 223.699219 169.734375 C 223.710938 171.644531 224.050781 173.140625 225.144531 174.671875 C 225.925781 175.773438 226.542969 177.011719 226.953125 178.324219 C 226.964844 178.359375 226.976562 178.394531 226.984375 178.429688 C 227.875 181.210938 229.46875 183.703125 230.34375 186.492188 C 231.140625 189.027344 231.390625 191.671875 231.445312 194.316406 C 231.484375 196.117188 231.425781 197.960938 230.84375 199.683594 C 230.699219 200.113281 230.484375 200.976562 230.117188 201.253906 C 232.972656 199.101562 233.886719 194.195312 233.90625 190.710938 C 233.929688 186.375 232.859375 182.289062 233.917969 177.949219 C 234.335938 176.214844 235.082031 174.542969 236.191406 173.195312 C 236.984375 172.226562 238.644531 170.503906 239.902344 170.425781 C 240.753906 170.371094 241.699219 170.996094 241.957031 171.886719 C 242.117188 172.433594 241.972656 173.039062 241.691406 173.527344 C 240.492188 175.617188 238.738281 176.777344 238.113281 179.3125 C 237.1875 183.066406 238.074219 186.855469 238.492188 190.609375 C 238.890625 194.203125 238.582031 197.925781 237.242188 201.304688 C 235.835938 204.847656 232.960938 208.738281 229.179688 209.808594 C 229.019531 209.855469 228.855469 209.867188 228.691406 209.882812 C 228.210938 209.933594 227.859375 210.375 227.949219 210.871094 C 228.015625 211.246094 228.417969 211.546875 228.800781 211.546875 L 274.804688 211.546875 L 274.804688 209.621094 L 234.085938 209.621094 " fill-opacity="1" fill-rule="nonzero"/></g></svg>